<svg width="529" height="530" viewBox="0 0 529 530" fill="none" xmlns="http://www.w3.org/2000/svg">
<path d="M400.446 334.046L314.746 391.178L290.802 361.136L359.97 307.308C361.291 306.275 361.827 304.52 361.311 302.93L345.851 255.606L392.809 247.987L410.395 301.815C410.395 301.815 418.28 323.64 400.446 334.046Z" fill="white" stroke="#002346" stroke-miterlimit="10"/>
<path d="M400.446 334.047L314.746 391.179L290.802 361.137L359.97 307.309C361.291 306.276 361.827 304.521 361.311 302.931L345.851 255.607L392.809 247.988L410.395 301.816C410.395 301.816 418.28 323.641 400.446 334.047Z" fill="white" stroke="#002346" stroke-miterlimit="10"/>
<path d="M98.1023 325.478L183.803 382.61L207.746 352.568L138.579 298.739C137.258 297.707 136.721 295.952 137.237 294.362L152.697 247.038L105.739 239.419L88.1534 293.247C88.1534 293.247 80.2686 315.072 98.1023 325.478Z" fill="white" stroke="#002346" stroke-miterlimit="10"/>
<path d="M300.855 720.816L272.68 743.693C263.701 750.982 252.369 754.183 240.81 754.244C236.373 754.265 232.203 756.123 230.593 762.276C226.589 777.638 229.685 787.817 217.899 798.327C206.113 808.837 195.235 823.414 196.515 837.082C196.515 837.082 185.287 841.418 189.229 854.736C189.848 856.842 192.387 857.73 194.224 856.532L327.213 769.998L453.287 699.962C565.945 646.712 490.709 574.652 490.709 574.652L398.114 479.591L326.821 552.497L415.576 630.566L300.855 720.857" fill="white"/>
<path d="M300.855 720.816L272.68 743.693C263.701 750.982 252.369 754.183 240.81 754.244C236.373 754.265 232.203 756.123 230.593 762.276C226.589 777.638 229.685 787.817 217.899 798.327C206.113 808.837 195.235 823.414 196.515 837.082C196.515 837.082 185.287 841.418 189.229 854.736C189.848 856.842 192.387 857.73 194.224 856.532L327.213 769.998L453.287 699.962C565.945 646.712 490.709 574.652 490.709 574.652L398.114 479.591L326.821 552.497L415.576 630.566L300.855 720.857" stroke="#002346" stroke-miterlimit="10"/>
<path d="M429.694 499.536C381.333 411 322.734 396.629 322.734 396.629H175.75C142.828 436.458 123.302 509.592 150.032 606.449L266.611 594.721L268.799 514.196L315.736 560.343L429.715 499.536H429.694Z" fill="black" stroke="#002346" stroke-miterlimit="10"/>
<path d="M300.256 65.2978C289.708 42.2965 287.046 15.5166 246.61 16.9207C206.175 15.496 203.492 42.2965 192.965 65.2978C182.335 88.5057 142.209 91.3963 142.209 154.247C142.209 213.444 235.733 212.164 246.61 211.813C257.467 212.164 351.012 213.444 351.012 154.247C351.012 91.3963 310.886 88.485 300.256 65.2978Z" fill="black" stroke="#002346" stroke-miterlimit="10"/>
<path d="M379.661 199.837C371.446 183.877 359 170.6 343.994 160.855C329.256 151.295 312.517 145.142 295.467 141.178C286.881 139.175 278.335 137.358 269.501 137.358H235.217C229.582 137.358 223.885 136.78 218.291 137.626C183.904 137.895 120.474 207.415 120.474 207.415L185.493 229.095L166.441 369.89H325.169L335.221 257.774L401.479 246.521L379.702 199.837H379.661Z" fill="#FFF5D0" stroke="#002346" stroke-linecap="round" stroke-linejoin="round"/>
<path d="M118.555 198.661C126.77 182.701 139.216 169.424 154.222 159.679C168.96 150.119 185.699 143.966 202.749 140.001C211.335 137.999 219.881 136.182 228.715 136.182L270.12 154.571C275.755 154.571 223.121 312.904 228.715 313.751C263.102 314.019 319.658 301.362 319.658 301.362L342.136 256.392L331.775 368.714H173.047L162.994 256.598L96.7374 245.345L118.513 198.661H118.555Z" fill="#FFF5D0" stroke="#002346" stroke-linecap="round" stroke-linejoin="round"/>
<path d="M272.184 143.408L245.351 161.991L200.974 236.322L222.646 283.811H303.146V206.383L272.184 143.408Z" fill="#FFF5D0" stroke="#FFF5D0"/>
<path d="M247.374 160.318C234.556 160.318 224.607 147.764 226.135 133.497L229.004 106.593H265.765L268.634 133.497C270.162 147.764 260.213 160.318 247.395 160.318H247.374Z" fill="white" stroke="#002346" stroke-miterlimit="10"/>
<path d="M695.363 381.309H-185.216V431.193H695.363V381.309Z" fill="white" stroke="#002346" stroke-miterlimit="10"/>
<path d="M736.211 396.629H-226.044C-230.275 396.629 -233.702 393.202 -233.702 388.969C-233.702 384.736 -230.275 381.309 -226.044 381.309H736.211C740.442 381.309 743.869 384.736 743.869 388.969C743.869 393.202 740.442 396.629 736.211 396.629Z" fill="#E6E6E6" stroke="#002346" stroke-miterlimit="10"/>
<path d="M268.717 69.3244C253.03 69.3244 243.494 64.018 237.735 56.9978C239.923 63.7909 242.792 69.3244 242.792 69.3244C232.926 63.3573 229.685 53.8181 228.632 48.3672C222.502 52.5999 218.477 59.682 218.477 67.6933V74.4244C218.229 74.4244 218.002 74.3624 217.775 74.3624C213.152 74.3624 209.395 78.1203 209.395 82.7453C209.395 87.3704 213.152 91.1282 217.775 91.1282C218.023 91.1282 218.25 91.0869 218.477 91.0663V92.0367C218.477 108.204 231.212 126.25 247.374 126.25C263.536 126.25 276.994 108.204 276.994 92.0367V91.1489C281.617 91.1489 285.374 87.3911 285.374 82.766C285.374 78.141 281.617 74.3831 276.994 74.3831V68.705C274.537 69.0973 271.813 69.3244 268.717 69.3244Z" fill="white" stroke="#002346" stroke-miterlimit="10"/>
<path d="M183.429 196.823L154.532 250.507" stroke="#002346" stroke-linecap="round" stroke-linejoin="round"/>
<path d="M337.203 249.474L322.754 201.984" stroke="#002346" stroke-linecap="round" stroke-linejoin="round"/>
<path d="M330.35 393.367H165.781C162.685 393.367 160.105 391.013 159.816 387.916L147.307 253.087C146.977 249.577 149.743 246.542 153.273 246.542H345.212C348.783 246.542 351.569 249.639 351.177 253.191L336.295 388.019C335.965 391.054 333.385 393.367 330.33 393.367H330.35Z" fill="#E3E4E5" stroke="#002346" stroke-miterlimit="10"/>
<path d="M249.314 336.669C258.548 336.669 266.033 329.181 266.033 319.944C266.033 310.708 258.548 303.22 249.314 303.22C240.081 303.22 232.595 310.708 232.595 319.944C232.595 329.181 240.081 336.669 249.314 336.669Z" stroke="#002346" stroke-linecap="round" stroke-linejoin="round"/>
<path d="M159.362 377.923H336.646" stroke="#002346" stroke-linecap="round" stroke-linejoin="round"/>
<path d="M160.332 264.609H338.173" stroke="#002346" stroke-linecap="round" stroke-linejoin="round"/>
<path d="M268.779 514.176V473.5" stroke="#002346" stroke-linecap="round" stroke-linejoin="round"/>
<path d="M238.013 82.5193C239.003 82.4599 239.701 80.6677 239.572 78.5164C239.443 76.365 238.536 74.6691 237.546 74.7285C236.556 74.7878 235.858 76.5799 235.987 78.7313C236.116 80.8827 237.023 82.5786 238.013 82.5193Z" fill="#002346" stroke="#002346" stroke-miterlimit="10"/>
<path d="M258.541 82.9626C259.531 82.9033 260.229 81.1111 260.1 78.9597C259.971 76.8083 259.064 75.1125 258.074 75.1718C257.084 75.2312 256.386 77.0233 256.515 79.1747C256.644 81.326 257.551 83.022 258.541 82.9626Z" fill="#002346" stroke="#002346" stroke-miterlimit="10"/>
<path d="M249.5 82.6045L254.062 96.2938C254.248 97.0371 253.608 97.7185 252.865 97.6153L246.136 96.6449" stroke="#002346" stroke-linecap="round" stroke-linejoin="round"/>
<path d="M232.967 71.7856C232.967 71.7856 236.125 68.2756 240.212 71.414" stroke="#002346" stroke-linecap="round" stroke-linejoin="round"/>
<path d="M253.381 72.1167C253.381 72.1167 256.539 68.6066 260.626 71.745" stroke="#002346" stroke-linecap="round" stroke-linejoin="round"/>
<path d="M243.225 105.646C245.145 106.844 249.562 109.074 254.537 108.145C254.887 108.083 255.176 108.434 254.97 108.744C253.257 111.386 247.436 118.82 242.647 106.142C242.503 105.791 242.916 105.44 243.225 105.646Z" fill="white" stroke="#002346" stroke-miterlimit="10"/>
<path d="M512.358 6H18C11.3726 6 6 11.3726 6 18V512.358C6 518.985 11.3726 524.358 18 524.358H512.358C518.985 524.358 524.358 518.985 524.358 512.358V18C524.358 11.3726 518.985 6 512.358 6Z" stroke="black" stroke-width="4" stroke-miterlimit="10"/>
</svg>
