<svg width="56" height="57" viewBox="0 0 56 57" fill="none" xmlns="http://www.w3.org/2000/svg">
<rect y="0.28125" width="56" height="56" rx="4" fill="black"/>
<g clip-path="url(#clip0_43_3131)">
<path d="M38 28.2813C38 22.7584 33.5229 18.2812 28 18.2812C22.4771 18.2812 18 22.7584 18 28.2813C18 33.2725 21.6568 37.4096 26.4375 38.1598V31.1719H23.8984V28.2813H26.4375V26.0781C26.4375 23.5719 27.9305 22.1875 30.2146 22.1875C31.3084 22.1875 32.4531 22.3828 32.4531 22.3828V24.8438H31.1922C29.95 24.8438 29.5625 25.6146 29.5625 26.4063V28.2813H32.3359L31.8926 31.1719H29.5625V38.1598C34.3432 37.4096 38 33.2725 38 28.2813Z" fill="white"/>
</g>
<defs>
<clipPath id="clip0_43_3131">
<rect width="20" height="20" fill="white" transform="translate(18 18.2812)"/>
</clipPath>
</defs>
</svg>
