<svg width="58" height="59" viewBox="0 0 58 59" fill="none" xmlns="http://www.w3.org/2000/svg">
<rect x="1" y="1.28125" width="56" height="56" rx="4" stroke="black" stroke-width="2"/>
<path d="M27.24 27.6713C26.67 27.6713 26.22 28.1713 26.22 28.7813C26.22 29.3913 26.68 29.8913 27.24 29.8913C27.81 29.8913 28.26 29.3913 28.26 28.7813C28.27 28.1713 27.81 27.6713 27.24 27.6713ZM30.89 27.6713C30.32 27.6713 29.87 28.1713 29.87 28.7813C29.87 29.3913 30.33 29.8913 30.89 29.8913C31.46 29.8913 31.91 29.3913 31.91 28.7813C31.91 28.1713 31.46 27.6713 30.89 27.6713Z" fill="black"/>
<path d="M35.75 19.2812H22.35C21.22 19.2812 20.3 20.2012 20.3 21.3412V34.8613C20.3 36.0013 21.22 36.9212 22.35 36.9212H33.69L33.16 35.0712L34.44 36.2613L35.65 37.3813L37.8 39.2813V21.3412C37.8 20.2012 36.88 19.2812 35.75 19.2812ZM31.89 32.3413C31.89 32.3413 31.53 31.9113 31.23 31.5313C32.54 31.1613 33.04 30.3413 33.04 30.3413C32.63 30.6113 32.24 30.8013 31.89 30.9313C31.39 31.1413 30.91 31.2813 30.44 31.3613C29.48 31.5413 28.6 31.4912 27.85 31.3512C27.28 31.2412 26.79 31.0812 26.38 30.9212C26.15 30.8312 25.9 30.7213 25.65 30.5813C25.62 30.5613 25.59 30.5513 25.56 30.5313C25.54 30.5213 25.53 30.5112 25.52 30.5012C25.34 30.4012 25.24 30.3313 25.24 30.3313C25.24 30.3313 25.72 31.1313 26.99 31.5113C26.69 31.8913 26.32 32.3413 26.32 32.3413C24.11 32.2713 23.27 30.8212 23.27 30.8212C23.27 27.6012 24.71 24.9912 24.71 24.9912C26.15 23.9112 27.52 23.9412 27.52 23.9412L27.62 24.0613C25.82 24.5813 24.99 25.3713 24.99 25.3713C24.99 25.3713 25.21 25.2513 25.58 25.0813C26.65 24.6113 27.5 24.4812 27.85 24.4512C27.91 24.4412 27.96 24.4313 28.02 24.4313C28.63 24.3513 29.32 24.3313 30.04 24.4113C30.99 24.5213 32.01 24.8013 33.05 25.3713C33.05 25.3713 32.26 24.6212 30.56 24.1012L30.7 23.9412C30.7 23.9412 32.07 23.9112 33.51 24.9912C33.51 24.9912 34.95 27.6012 34.95 30.8212C34.95 30.8212 34.1 32.2713 31.89 32.3413V32.3413Z" fill="black"/>
</svg>
