<svg width="26" height="28" viewBox="0 0 26 28" fill="none" xmlns="http://www.w3.org/2000/svg">
<mask id="path-1-outside-1_43_2657" maskUnits="userSpaceOnUse" x="-3" y="-3" width="32" height="34" fill="black">
<rect fill="white" x="-3" y="-3" width="32" height="34"/>
<path d="M18.2 27V19.224H16.76V10.92C16.76 9.704 16.472 8.808 15.896 8.232C15.352 7.624 14.44 7.32 13.16 7.32C12.552 7.32 11.656 7.336 10.472 7.368C9.288 7.4 8.04 7.448 6.728 7.512C5.416 7.576 4.216 7.64 3.128 7.704V0.407999C3.896 0.343998 4.808 0.279998 5.864 0.215999C6.92 0.151999 8.008 0.103999 9.128 0.0719976C10.28 0.0399981 11.336 0.0239983 12.296 0.0239983C15.016 0.0239983 17.32 0.423999 19.208 1.224C21.128 2.024 22.584 3.224 23.576 4.824C24.6 6.424 25.112 8.456 25.112 10.92V27H18.2ZM9.8 27.672C7.944 27.672 6.296 27.336 4.856 26.664C3.416 25.992 2.28 25.032 1.448 23.784C0.648 22.504 0.248 20.984 0.248 19.224C0.248 17.24 0.776 15.64 1.832 14.424C2.888 13.176 4.344 12.264 6.2 11.688C8.056 11.112 10.184 10.824 12.584 10.824H17.72V15.336H12.584C11.4 15.336 10.488 15.64 9.848 16.248C9.208 16.824 8.888 17.608 8.888 18.6C8.888 19.56 9.208 20.344 9.848 20.952C10.488 21.528 11.4 21.816 12.584 21.816C13.352 21.816 14.024 21.688 14.6 21.432C15.208 21.144 15.704 20.664 16.088 19.992C16.472 19.32 16.696 18.392 16.76 17.208L18.776 19.128C18.616 20.952 18.168 22.504 17.432 23.784C16.728 25.032 15.736 25.992 14.456 26.664C13.208 27.336 11.656 27.672 9.8 27.672Z"/>
</mask>
<path d="M18.2 27H15.2V30H18.2V27ZM18.2 19.224H21.2V16.224H18.2V19.224ZM16.76 19.224H13.76V22.224H16.76V19.224ZM15.896 8.232L13.6603 10.2324L13.7158 10.2944L13.7747 10.3533L15.896 8.232ZM10.472 7.368L10.5531 10.3669L10.5531 10.3669L10.472 7.368ZM6.728 7.512L6.87417 10.5084L6.728 7.512ZM3.128 7.704H0.128V10.8857L3.30417 10.6988L3.128 7.704ZM3.128 0.407999L2.87886 -2.58164L0.128 -2.3524V0.407999H3.128ZM5.864 0.215999L5.68252 -2.77851L5.864 0.215999ZM9.128 0.0719976L9.0447 -2.92685L9.04232 -2.92678L9.128 0.0719976ZM19.208 1.224L18.0376 3.98625L18.0458 3.98977L18.0542 3.99323L19.208 1.224ZM23.576 4.824L21.0263 6.40482L21.0376 6.42307L21.0492 6.44116L23.576 4.824ZM25.112 27V30H28.112V27H25.112ZM1.448 23.784L-1.09599 25.374L-1.07262 25.4114L-1.04815 25.4481L1.448 23.784ZM1.832 14.424L4.0971 16.3911L4.10972 16.3765L4.12216 16.3618L1.832 14.424ZM6.2 11.688L7.0892 14.5532L7.0892 14.5532L6.2 11.688ZM17.72 10.824H20.72V7.824H17.72V10.824ZM17.72 15.336V18.336H20.72V15.336H17.72ZM9.848 16.248L11.8549 18.4779L11.8849 18.4508L11.9142 18.423L9.848 16.248ZM9.848 20.952L7.78175 23.127L7.81106 23.1548L7.84111 23.1819L9.848 20.952ZM14.6 21.432L15.8184 24.1734L15.8515 24.1587L15.8843 24.1432L14.6 21.432ZM16.088 19.992L13.4833 18.5036L13.4833 18.5036L16.088 19.992ZM16.76 17.208L18.829 15.0356L14.1157 10.5467L13.7644 17.0461L16.76 17.208ZM18.776 19.128L21.7645 19.3902L21.8907 17.9515L20.845 16.9556L18.776 19.128ZM17.432 23.784L14.8313 22.2886L14.8251 22.2993L14.8191 22.31L17.432 23.784ZM14.456 26.664L13.0615 24.0078L13.0476 24.0151L13.0337 24.0226L14.456 26.664ZM21.2 27V19.224H15.2V27H21.2ZM18.2 16.224H16.76V22.224H18.2V16.224ZM19.76 19.224V10.92H13.76V19.224H19.76ZM19.76 10.92C19.76 9.29655 19.3811 7.47448 18.0173 6.11068L13.7747 10.3533C13.6768 10.2554 13.667 10.1891 13.6879 10.254C13.7134 10.3333 13.76 10.5376 13.76 10.92H19.76ZM18.1317 6.23161C16.7625 4.70133 14.8141 4.32 13.16 4.32V10.32C13.5777 10.32 13.7876 10.3715 13.8553 10.394C13.9049 10.4106 13.7939 10.3818 13.6603 10.2324L18.1317 6.23161ZM13.16 4.32C12.5104 4.32 11.5818 4.33691 10.3909 4.36909L10.5531 10.3669C11.7302 10.3351 12.5936 10.32 13.16 10.32V4.32ZM10.3909 4.36909C9.18305 4.40174 7.91323 4.45062 6.58183 4.51556L6.87417 10.5084C8.16677 10.4454 9.39295 10.3983 10.5531 10.3669L10.3909 4.36909ZM6.58183 4.51556C5.26178 4.57996 4.0516 4.64448 2.95183 4.70918L3.30417 10.6988C4.3804 10.6355 5.57022 10.572 6.87417 10.5084L6.58183 4.51556ZM6.128 7.704V0.407999H0.128V7.704H6.128ZM3.37714 3.39764C4.11608 3.33606 5.0044 3.2736 6.04548 3.2105L5.68252 -2.77851C4.6116 -2.7136 3.67592 -2.64806 2.87886 -2.58164L3.37714 3.39764ZM6.04548 3.2105C7.06777 3.14855 8.12378 3.10192 9.21368 3.07077L9.04232 -2.92678C7.89222 -2.89392 6.77223 -2.84455 5.68252 -2.77851L6.04548 3.2105ZM9.2113 3.07084C10.3408 3.03947 11.3686 3.024 12.296 3.024V-2.976C11.3034 -2.976 10.2192 -2.95947 9.0447 -2.92685L9.2113 3.07084ZM12.296 3.024C14.7383 3.024 16.6194 3.38534 18.0376 3.98625L20.3784 -1.53825C18.0206 -2.53734 15.2937 -2.976 12.296 -2.976V3.024ZM18.0542 3.99323C19.4598 4.57891 20.3987 5.39255 21.0263 6.40482L26.1257 3.24318C24.7693 1.05545 22.7962 -0.530916 20.3618 -1.54523L18.0542 3.99323ZM21.0492 6.44116C21.6847 7.43421 22.112 8.86139 22.112 10.92H28.112C28.112 8.05061 27.5153 5.41379 26.1028 3.20684L21.0492 6.44116ZM22.112 10.92V27H28.112V10.92H22.112ZM25.112 24H18.2V30H25.112V24ZM9.8 24.672C8.30923 24.672 7.10608 24.4034 6.12466 23.9455L3.58734 29.3825C5.48592 30.2686 7.57877 30.672 9.8 30.672V24.672ZM6.12466 23.9455C5.15181 23.4915 4.45293 22.8831 3.94415 22.1199L-1.04815 25.4481C0.107066 27.1809 1.68019 28.4925 3.58734 29.3825L6.12466 23.9455ZM3.992 22.194C3.5366 21.4654 3.248 20.5167 3.248 19.224H-2.752C-2.752 21.4513 -2.2406 23.5426 -1.09599 25.374L3.992 22.194ZM3.248 19.224C3.248 17.7886 3.618 16.9428 4.0971 16.3911L-0.4331 12.4569C-2.066 14.3372 -2.752 16.6914 -2.752 19.224H3.248ZM4.12216 16.3618C4.74428 15.6266 5.67462 14.9922 7.0892 14.5532L5.3108 8.82281C3.01338 9.5358 1.03172 10.7254 -0.458159 12.4862L4.12216 16.3618ZM7.0892 14.5532C8.59891 14.0847 10.4176 13.824 12.584 13.824V7.824C9.95038 7.824 7.51309 8.13934 5.3108 8.82281L7.0892 14.5532ZM12.584 13.824H17.72V7.824H12.584V13.824ZM14.72 10.824V15.336H20.72V10.824H14.72ZM17.72 12.336H12.584V18.336H17.72V12.336ZM12.584 12.336C10.8994 12.336 9.14751 12.7755 7.78175 14.073L11.9142 18.423C11.8878 18.4481 11.8842 18.4355 11.9607 18.41C12.0494 18.3805 12.2427 18.336 12.584 18.336V12.336ZM7.84111 14.0181C6.47018 15.2519 5.888 16.9002 5.888 18.6H11.888C11.888 18.4271 11.9154 18.3776 11.9055 18.4017C11.9011 18.4125 11.8923 18.4301 11.8789 18.449C11.8727 18.4579 11.8669 18.465 11.8621 18.4704C11.8573 18.4757 11.8546 18.4781 11.8549 18.4779L7.84111 14.0181ZM5.888 18.6C5.888 20.3024 6.48997 21.8998 7.78175 23.127L11.9142 18.777C11.8981 18.7616 11.8948 18.7557 11.8976 18.7598C11.9007 18.7643 11.9039 18.7702 11.9055 18.7743C11.9108 18.7872 11.888 18.7429 11.888 18.6H5.888ZM7.84111 23.1819C9.20942 24.4134 10.9385 24.816 12.584 24.816V18.816C11.8615 18.816 11.7666 18.6426 11.8549 18.7221L7.84111 23.1819ZM12.584 24.816C13.6821 24.816 14.7846 24.6329 15.8184 24.1734L13.3816 18.6906C13.2634 18.7431 13.0219 18.816 12.584 18.816V24.816ZM15.8843 24.1432C17.1276 23.5543 18.0514 22.6027 18.6927 21.4804L13.4833 18.5036C13.415 18.6231 13.3633 18.6793 13.3417 18.7002C13.3228 18.7185 13.3162 18.7206 13.3157 18.7208L15.8843 24.1432ZM18.6927 21.4804C19.3993 20.244 19.6786 18.7951 19.7556 17.3699L13.7644 17.0461C13.7134 17.9889 13.5447 18.396 13.4833 18.5036L18.6927 21.4804ZM14.691 19.3804L16.707 21.3004L20.845 16.9556L18.829 15.0356L14.691 19.3804ZM15.7875 18.8658C15.6567 20.3571 15.3042 21.4661 14.8313 22.2886L20.0327 25.2794C21.0318 23.5419 21.5753 21.5469 21.7645 19.3902L15.7875 18.8658ZM14.8191 22.31C14.4016 23.0501 13.8349 23.6018 13.0615 24.0078L15.8505 29.3202C17.6371 28.3822 19.0544 27.0139 20.0449 25.258L14.8191 22.31ZM13.0337 24.0226C12.3372 24.3976 11.3081 24.672 9.8 24.672V30.672C12.0039 30.672 14.0788 30.2744 15.8783 29.3054L13.0337 24.0226Z" fill="black" mask="url(#path-1-outside-1_43_2657)"/>
</svg>
