<svg width="524" height="360" viewBox="0 0 524 360" fill="none" xmlns="http://www.w3.org/2000/svg">
<path d="M429.809 323.819H411.401V357.199H429.809V323.819Z" fill="#E3E4E5" stroke="#002346" stroke-miterlimit="10"/>
<path d="M511.168 323.819H492.76V357.199H511.168V323.819Z" fill="#E3E4E5" stroke="#002346" stroke-miterlimit="10"/>
<path d="M370.935 123.73H517.881C520.944 123.73 523.43 126.23 523.43 129.31V318.25C523.43 321.33 520.944 323.83 517.881 323.83H370.935V123.72V123.73Z" fill="#E3E4E5" stroke="#002346" stroke-miterlimit="10"/>
<path d="M485.987 123.729H348.549C345.484 123.729 343 126.228 343 129.309V318.259C343 321.341 345.484 323.839 348.549 323.839H485.987C489.052 323.839 491.537 321.341 491.537 318.259V129.309C491.537 126.228 489.052 123.729 485.987 123.729Z" fill="white" stroke="#002346" stroke-miterlimit="10"/>
<path d="M374.535 323.819H356.127V357.199H374.535V323.819Z" fill="white" stroke="#002346" stroke-miterlimit="10"/>
<path d="M480.408 323.819H462V357.199H480.408V323.819Z" fill="white" stroke="#002346" stroke-miterlimit="10"/>
<path d="M352.985 177.869V139.279C352.985 135.969 355.66 133.279 358.952 133.279H475.595C478.887 133.279 481.562 135.969 481.562 139.279V177.869C481.562 181.179 478.887 183.869 475.595 183.869H358.952C355.66 183.869 352.985 181.179 352.985 177.869Z" fill="#E3E4E5" stroke="#002346" stroke-miterlimit="10"/>
<path d="M417.278 164.739C420.574 164.739 423.245 162.053 423.245 158.739C423.245 155.426 420.574 152.739 417.278 152.739C413.983 152.739 411.311 155.426 411.311 158.739C411.311 162.053 413.983 164.739 417.278 164.739Z" fill="white" stroke="#002346" stroke-miterlimit="10"/>
<path d="M352.985 242.029V203.439C352.985 200.129 355.66 197.439 358.952 197.439H475.595C478.887 197.439 481.562 200.129 481.562 203.439V242.029C481.562 245.339 478.887 248.029 475.595 248.029H358.952C355.66 248.029 352.985 245.339 352.985 242.029Z" fill="#E3E4E5" stroke="#002346" stroke-miterlimit="10"/>
<path d="M417.278 228.739C420.574 228.739 423.245 226.053 423.245 222.739C423.245 219.426 420.574 216.739 417.278 216.739C413.983 216.739 411.311 219.426 411.311 222.739C411.311 226.053 413.983 228.739 417.278 228.739Z" fill="white" stroke="#002346" stroke-miterlimit="10"/>
<path d="M352.985 306.19V267.6C352.985 264.29 355.66 261.6 358.952 261.6H475.595C478.887 261.6 481.562 264.29 481.562 267.6V306.19C481.562 309.5 478.887 312.19 475.595 312.19H358.952C355.66 312.19 352.985 309.5 352.985 306.19Z" fill="#E3E4E5" stroke="#002346" stroke-miterlimit="10"/>
<path d="M417.278 292.899C420.574 292.899 423.245 290.213 423.245 286.899C423.245 283.586 420.574 280.899 417.278 280.899C413.983 280.899 411.311 283.586 411.311 286.899C411.311 290.213 413.983 292.899 417.278 292.899Z" fill="white" stroke="#002346" stroke-miterlimit="10"/>
<path d="M474.203 106.73V121.71C474.203 122.68 473.417 123.47 472.452 123.47H393.112C390.636 123.47 388.637 121.45 388.637 118.97V109.48C388.637 106.99 390.646 104.98 393.112 104.98H472.452C473.417 104.98 474.203 105.77 474.203 106.74V106.73Z" fill="#F5F5F5" stroke="#002346" stroke-miterlimit="10"/>
<path d="M474.203 107.79V120.66H446.944C445.661 120.66 444.617 119.61 444.617 118.32V110.14C444.617 108.85 445.661 107.8 446.944 107.8H474.203V107.79Z" fill="white" stroke="#002346" stroke-miterlimit="10"/>
<path d="M481.661 88.2402V103.22C481.661 104.19 480.876 104.98 479.911 104.98H400.571C398.095 104.98 396.096 102.96 396.096 100.48V90.9902C396.096 88.5002 398.104 86.4902 400.571 86.4902H479.911C480.876 86.4902 481.661 87.2802 481.661 88.2502V88.2402Z" fill="black" stroke="black" stroke-miterlimit="10"/>
<path d="M481.661 89.2998V102.17H454.403C453.12 102.17 452.075 101.12 452.075 99.8298V91.6498C452.075 90.3598 453.12 89.3098 454.403 89.3098H481.661V89.2998Z" fill="white" stroke="black" stroke-miterlimit="10"/>
<path d="M468.335 69.75V84.73C468.335 85.7 467.55 86.49 466.585 86.49H387.245C384.768 86.49 382.77 84.47 382.77 81.99V72.5C382.77 70.01 384.778 68 387.245 68H466.585C467.55 68 468.335 68.79 468.335 69.76V69.75Z" fill="#E5E5E5" stroke="#002346" stroke-miterlimit="10"/>
<path d="M468.335 70.7998V83.6698H441.077C439.794 83.6698 438.749 82.6198 438.749 81.3298V73.1498C438.749 71.8598 439.794 70.8098 441.077 70.8098H468.335V70.7998Z" fill="white" stroke="#002346" stroke-miterlimit="10"/>
<path d="M330 249H9V81.2646C9 77.2531 10.9733 74 13.4066 74H325.593C328.027 74 330 77.2531 330 81.2646V249Z" fill="white" stroke="#002346" stroke-miterlimit="10"/>
<path d="M311 221.152H27V98.3605C27 93.825 29.097 90.1523 31.6866 90.1523H306.313C308.903 90.1523 311 93.825 311 98.3605V221.152Z" fill="#E5E5E5" stroke="#002346" stroke-miterlimit="10"/>
<path d="M56.9099 308.362L49.0399 357.352H56.4699L89.2699 308.802L56.9099 308.362Z" fill="white" stroke="#002346" stroke-miterlimit="10"/>
<path d="M280 310.239L287.87 359.229H280.43L247.63 310.679L280 310.239Z" fill="white" stroke="#002346" stroke-miterlimit="10"/>
<path d="M322.877 167.007C322.972 166.957 323.041 167.178 322.972 167.309C322.713 167.801 322.533 168.465 322.48 169.208L315.184 274.969C314.47 285.291 309.846 293 304.365 293H32.0571C26.2692 293 21.4812 284.397 21.1743 273.412L18.2221 171.027C18.1851 169.651 17.6772 168.505 17 168.193L29.2002 171.62V258.065H309.497V173.671L322.877 167.007Z" fill="#E5E5E5" stroke="#002346" stroke-miterlimit="10"/>
<path d="M338.95 178.845C333.939 220.008 340.387 311.619 306.8 310.997H30.6014C-3.87469 310.776 4.51538 222.214 1.01513 179.998C0.525626 163.733 12.037 168.507 17.2215 167.885C18.1058 167.945 18.8059 169.128 18.869 170.843L21.8061 272.993C22.1166 283.953 26.8749 292.536 32.6332 292.536H303.542C308.995 292.536 313.595 284.835 314.306 274.547L321.564 169.028C321.612 167.293 322.48 166.381 323.264 166.18C328.18 166.742 339.86 162.139 338.95 178.845Z" fill="white" stroke="#002346" stroke-miterlimit="10"/>
<path d="M308.852 231H27.1306C27.2954 222.198 24.5348 206.031 37.9462 206H298.036C311.447 206.133 308.728 222.085 308.852 231Z" fill="#E5E5E5" stroke="#002346" stroke-miterlimit="10"/>
<path d="M302.496 277H33.5035C29.9168 277 27 274.213 27 270.763V231H309V270.763C309 274.203 306.094 277 302.496 277Z" fill="white" stroke="#002346" stroke-miterlimit="10"/>
<path d="M303.65 277.982C294.6 281.452 275.7 288.702 266.56 292.202L231.12 225.422L225.43 221.492L140.91 163.102L146.62 140.782C168.82 143.322 214.22 145.632 236.68 145.832C251.44 149.262 294.9 260.562 303.66 277.982H303.65Z" fill="white"/>
<path d="M303.65 277.982C294.34 281.372 275.73 288.492 266.56 292.202L231.12 225.422L225.43 221.492L140.91 163.102L146.62 140.782C168.82 143.322 214.22 145.632 236.68 145.832C251.44 149.262 294.9 260.562 303.66 277.982H303.65Z" fill="black" stroke="#002346" stroke-miterlimit="10"/>
<path d="M189.99 94.1022V145.142C183.11 148.272 149.3 161.912 142.15 163.862C116.21 170.942 95.99 176.472 95.99 176.472C95.79 171.352 104.07 159.722 104.07 159.722C109.05 152.562 119.61 115.542 120.62 112.042L89.26 109.272C87.53 86.2022 96.92 64.6622 112.65 60.8822C119.38 57.8722 132.12 58.6722 132.12 58.6722L151.21 57.5322C180.02 75.2122 172.64 66.1522 190 94.1022H189.99Z" fill="#D4E9FF" stroke="#002346" stroke-miterlimit="10"/>
<path d="M173.47 140.853V154.353L124.41 157.433C123.85 157.463 123.3 157.553 122.75 157.633C114.16 158.853 104.21 151.933 102.05 147.303C98.1499 138.953 95.2399 118.783 94.0399 109.723L120.43 112.253C120.5 112.253 120.56 112.323 120.56 112.393L121.33 129.073C121.47 132.053 123.07 134.823 125.68 136.263C129.52 138.363 134.31 137.923 134.31 137.923L173.48 140.863L173.47 140.853Z" fill="white" stroke="#002346" stroke-miterlimit="10"/>
<path d="M238.82 152.073L141.53 157.543C141.25 157.563 141.02 157.313 141.06 157.043C141.58 153.693 140.92 146.953 145.54 146.943L241.25 141.553C240.74 142.543 240.81 152.393 238.81 152.083L238.82 152.073Z" fill="#E5E5E5" stroke="#002346" stroke-miterlimit="10"/>
<path d="M232.96 146.582L176.05 149.302C173.37 149.432 171.26 147.052 171.71 144.412L179.62 97.5719C179.96 95.5319 181.69 94.0118 183.76 93.9418L241.08 91.8018C243.76 91.7018 245.85 94.1118 245.37 96.7518L236.89 143.152C236.54 145.072 234.91 146.502 232.96 146.592V146.582Z" fill="white" stroke="#002346" stroke-miterlimit="10"/>
<path d="M218.92 123.692C219.01 132.382 208.45 132.382 208.54 123.692C208.45 115.002 219.01 115.002 218.92 123.692Z" stroke="#EC1C24" stroke-width="0.25" stroke-miterlimit="10"/>
<path d="M273.61 289.363L282.94 306.733C282.94 306.733 295.82 304.583 303.86 301.373L297.54 280.433L273.6 289.373L273.61 289.363Z" fill="white" stroke="#002346" stroke-miterlimit="10"/>
<path d="M190.74 289.382V309.882C190.74 309.882 203.31 314.172 213.5 313.902L218.87 292.132L190.74 289.382Z" fill="white" stroke="#002346" stroke-miterlimit="10"/>
<path d="M257.71 346.743C246.8 356.583 198.92 341.093 185.02 340.323C184.57 336.853 186.83 330.673 186.83 330.673C189.25 324.783 188.03 317.113 188.03 317.113C187.75 302.653 191.6 313.933 213.51 313.623C214.08 312.863 214.3 305.903 216.5 308.493C219.79 315.053 229.01 327.583 229.01 327.583C231.32 332.503 234.89 336.183 238.06 338.693C242.73 344.163 255.3 342.473 257.72 346.753L257.71 346.743Z" fill="black" stroke="#002346" stroke-miterlimit="10"/>
<path d="M260.95 353.342C248.98 365.042 193.85 350.792 184.3 349.232C178.96 347.942 183.8 340.112 185.02 340.312C198.24 340.982 247.13 356.602 257.71 346.732C263.16 349.492 260.95 353.332 260.95 353.332V353.342Z" fill="white" stroke="#002346" stroke-miterlimit="10"/>
<path opacity="0.2" d="M308.99 339.102C307.31 342.972 299.33 341.832 295.67 342.352C294.37 338.712 296.07 334.752 296.07 334.752C300.04 336.572 307.84 335.632 308.99 339.102Z" fill="white"/>
<path d="M134.36 40.5626C134.36 40.5626 137.38 51.1226 132.12 58.6726C132.12 58.6726 136.35 73.4626 146.91 74.3626C146.91 74.3626 153.25 74.3626 152.04 64.1026L150.83 47.5026L140.83 35.4326L134.36 40.5626Z" fill="white" stroke="#002346" stroke-miterlimit="10"/>
<path d="M171.66 30.562C172 59.982 138.16 60.002 137.8 30.562C138.23 1.23195 171.23 1.23195 171.66 30.562Z" fill="white" stroke="#002346" stroke-miterlimit="10"/>
<path d="M133.18 5.10233C143.5 -4.46767 188.45 0.382324 170.93 44.8423C169.12 48.9823 168.01 53.4223 167.69 57.9323C167.38 62.1823 167.72 66.6923 170 68.8623C165.51 66.1423 156.01 60.4323 151.56 57.8023L151.21 52.6423C151.21 52.5423 151.3 52.4523 151.4 52.4923C152.81 52.9823 160.41 52.7823 163.25 49.9223C166.63 47.5023 168.65 43.5923 168.99 39.4623C168.9 31.6923 172.05 20.8723 166.05 13.9923C165.7 14.7823 163.13 20.3823 157.55 20.4123C157.55 20.4123 161.78 17.1723 161.17 13.4023C161.17 13.4023 154.16 22.4523 145.1 20.1923C145.1 20.1923 143.18 27.2023 137.8 28.7923C137.33 30.4023 134.82 38.9623 134.36 40.5623C134.36 40.5623 137.48 50.9723 132.12 58.6823C108.25 57.0223 92.7999 68.5023 89.2699 96.0923C89.2699 96.0923 73.5699 90.6623 78.3999 69.8423C79.9799 53.4923 103.25 53.9423 116.29 41.2423C120.99 36.6723 123.46 30.3323 123.7 23.7823C123.85 19.5223 125.44 12.2823 133.18 5.10233Z" fill="black" stroke="#002346" stroke-miterlimit="10"/>
<path d="M228.81 266.942C227.63 272.002 222.29 294.552 222.29 294.552L182.91 290.712L189.99 213.042C178.41 215.642 170.75 218.532 161.71 223.122C140.76 234.652 111.66 230.092 102.17 228.152C73.0599 222.602 90.11 183.962 95.99 176.482C219.18 140.762 257.32 144.322 228.81 266.952V266.942Z" fill="black" stroke="#002346" stroke-miterlimit="10"/>
<path d="M237.93 146.582C164.44 146.122 173.38 169.232 184.59 97.5622C184.93 95.5222 187.14 93.5822 189.21 93.5122L245.45 91.0922C248.13 90.9922 250.83 94.1022 250.34 96.7422L241.86 143.142C241.51 145.062 239.88 146.492 237.93 146.582Z" fill="black" stroke="#002346" stroke-miterlimit="10"/>
<path d="M155.085 30.9809C155.564 30.9522 155.902 30.0842 155.84 29.0423C155.778 28.0003 155.338 27.179 154.858 27.2077C154.379 27.2365 154.041 28.1044 154.103 29.1464C154.166 30.1883 154.605 31.0097 155.085 30.9809Z" fill="#002346" stroke="#002346" stroke-miterlimit="10"/>
<path d="M165.03 31.1958C165.51 31.167 165.848 30.2991 165.785 29.2571C165.723 28.2152 165.283 27.3938 164.804 27.4226C164.324 27.4513 163.986 28.3193 164.048 29.3612C164.111 30.4032 164.55 31.2245 165.03 31.1958Z" fill="#002346" stroke="#002346" stroke-miterlimit="10"/>
<path d="M160.65 31.0225L162.86 37.6525C162.95 38.0125 162.64 38.3425 162.28 38.2925L159.02 37.8225" stroke="#002346" stroke-linecap="round" stroke-linejoin="round"/>
<path d="M152.64 25.7825C152.64 25.7825 154.17 24.0826 156.15 25.6026" stroke="#002346" stroke-linecap="round" stroke-linejoin="round"/>
<path d="M162.53 25.9427C162.53 25.9427 164.06 24.2427 166.04 25.7627" stroke="#002346" stroke-linecap="round" stroke-linejoin="round"/>
<path d="M157.61 42.1821C158.54 42.7621 160.68 43.8421 163.09 43.3921C163.26 43.3621 163.4 43.5321 163.3 43.6821C162.47 44.9621 159.65 48.5621 157.33 42.4221C157.26 42.2521 157.46 42.0821 157.61 42.1821Z" fill="white" stroke="#002346" stroke-miterlimit="10"/>
<path d="M305.18 300.403C304.51 297.263 304.52 292.273 308.54 294.313C322.74 304.153 338.22 313.183 348.3 309.703C356.04 305.543 361.68 306.923 360.54 310.493C358.21 312.953 354.65 315.353 351.53 317.213H351.52C351.81 319.293 297.55 335.823 294.47 337.003C290.78 338.513 290.22 331.123 290.46 330.823C290.46 326.263 288.13 320.933 286.45 317.683C285.68 316.193 284.77 314.783 283.81 313.413C282.63 311.723 282.13 310.423 282 309.443C281.8 308.043 282.85 306.763 284.25 306.553C288.07 305.993 299.4 304.083 305.19 300.403H305.18Z" fill="black" stroke="#002346" stroke-miterlimit="10"/>
<path d="M348.21 317.932C344.2 320.302 298.25 336.512 292.59 336.912C292.44 337.052 292.36 337.122 292.36 337.122C292.36 337.122 292.06 338.122 291.96 339.462C291.68 343.152 295.35 345.922 298.8 344.582C317.82 337.232 348.24 331.582 364.33 315.912C365.55 314.722 365.66 312.802 364.6 311.472C363.77 310.432 362.49 309.332 360.56 308.672C360.56 308.672 354.53 314.182 348.22 317.912L348.21 317.932Z" fill="white" stroke="#002346" stroke-miterlimit="10"/>
<path d="M118.21 111.933L124.21 112.933C124.21 112.933 128.21 93.9326 123.21 79.9326" stroke="#002346" stroke-linecap="round" stroke-linejoin="round"/>
<path d="M138.999 34.5C139.083 41.8333 129.917 41.8333 130.001 34.5C129.917 27.1667 139.083 27.1667 138.999 34.5Z" fill="white" stroke="#002346" stroke-miterlimit="10"/>
<path d="M134 32C134 32 135 35 134 37" stroke="#002346" stroke-linecap="round" stroke-linejoin="round"/>
</svg>
