<svg width="58" height="59" viewBox="0 0 58 59" fill="none" xmlns="http://www.w3.org/2000/svg">
<rect x="1" y="1.28125" width="56" height="56" rx="4" stroke="black" stroke-width="2"/>
<path d="M25.2918 37.4063C32.8371 37.4063 36.9652 31.1536 36.9652 25.7329C36.9652 25.5571 36.9613 25.3774 36.9535 25.2016C37.7566 24.6209 38.4496 23.9015 39 23.0774C38.2521 23.4101 37.458 23.6275 36.6449 23.7219C37.5011 23.2087 38.1421 22.4025 38.4492 21.4528C37.6438 21.9301 36.763 22.2668 35.8445 22.4485C35.2257 21.7909 34.4075 21.3556 33.5164 21.2097C32.6253 21.0638 31.711 21.2155 30.9148 21.6414C30.1186 22.0673 29.4848 22.7436 29.1115 23.5657C28.7382 24.3879 28.6462 25.3102 28.8496 26.1899C27.2187 26.1081 25.6233 25.6844 24.1667 24.9464C22.71 24.2084 21.4247 23.1725 20.3941 21.9059C19.8703 22.809 19.71 23.8777 19.9459 24.8947C20.1817 25.9118 20.7959 26.8009 21.6637 27.3813C21.0122 27.3606 20.375 27.1852 19.8047 26.8696V26.9204C19.8041 27.8681 20.1317 28.7868 20.7319 29.5203C21.3321 30.2538 22.1678 30.7568 23.0969 30.9438C22.4934 31.1089 21.86 31.133 21.2457 31.0141C21.5079 31.8292 22.018 32.5421 22.7048 33.0533C23.3916 33.5645 24.2209 33.8485 25.077 33.8657C23.6237 35.0072 21.8285 35.6264 19.9805 35.6235C19.6527 35.623 19.3253 35.6029 19 35.5633C20.8774 36.7678 23.0613 37.4075 25.2918 37.4063Z" fill="black"/>
</svg>
