<svg width="58" height="59" viewBox="0 0 58 59" fill="none" xmlns="http://www.w3.org/2000/svg">
<rect x="1" y="1.28125" width="56" height="56" rx="4" stroke="black" stroke-width="2"/>
<path fill-rule="evenodd" clip-rule="evenodd" d="M39 29.2812C39 34.8041 34.5228 39.2812 29 39.2812C23.4772 39.2812 19 34.8041 19 29.2812C19 23.7584 23.4772 19.2812 29 19.2812C34.5228 19.2812 39 23.7584 39 29.2812ZM34.2047 27.8192C35.0117 27.8192 35.6667 28.4742 35.6667 29.2812C35.6667 29.8777 35.3041 30.3923 34.8246 30.6263C34.848 30.7666 34.8597 30.907 34.8597 31.059C34.8597 33.3046 32.2515 35.1175 29.0234 35.1175C25.7953 35.1175 23.1871 33.3046 23.1871 31.059C23.1871 30.907 23.1988 30.7549 23.2222 30.6146C22.7076 30.3806 22.3567 29.8777 22.3567 29.2812C22.3567 28.4742 23.0117 27.8192 23.8187 27.8192C24.2047 27.8192 24.5673 27.983 24.8246 28.2286C25.8304 27.4918 27.2222 27.0356 28.7778 26.9888L29.5146 23.5035C29.538 23.4333 29.5731 23.3748 29.6316 23.3397C29.6901 23.3046 29.7602 23.2929 29.8304 23.3046L32.2515 23.8192C32.4152 23.4684 32.7661 23.2344 33.1754 23.2344C33.7485 23.2344 34.2164 23.7023 34.2164 24.2754C34.2164 24.8485 33.7485 25.3163 33.1754 25.3163C32.614 25.3163 32.1579 24.8719 32.1345 24.3222L29.9708 23.866L29.3041 26.9888C30.8246 27.0473 32.2047 27.5151 33.1988 28.2286C33.4561 27.9713 33.807 27.8192 34.2047 27.8192ZM26.7076 29.2812C26.1345 29.2812 25.6667 29.7491 25.6667 30.3222C25.6667 30.8953 26.1345 31.3631 26.7076 31.3631C27.2807 31.3631 27.7485 30.8953 27.7485 30.3222C27.7485 29.7491 27.2807 29.2812 26.7076 29.2812ZM29.0117 33.8309C29.4094 33.8309 30.7661 33.7842 31.4795 33.0707C31.5848 32.9654 31.5848 32.8017 31.5029 32.6847C31.3977 32.5795 31.2222 32.5795 31.117 32.6847C30.6608 33.1292 29.7135 33.2929 29.0234 33.2929C28.3333 33.2929 27.3743 33.1292 26.9298 32.6847C26.8246 32.5795 26.6491 32.5795 26.5439 32.6847C26.4386 32.79 26.4386 32.9654 26.5439 33.0707C27.2456 33.7725 28.614 33.8309 29.0117 33.8309ZM30.2515 30.3222C30.2515 30.8953 30.7193 31.3631 31.2924 31.3631C31.8655 31.3631 32.3333 30.8953 32.3333 30.3222C32.3333 29.7491 31.8655 29.2812 31.2924 29.2812C30.7193 29.2812 30.2515 29.7491 30.2515 30.3222Z" fill="black"/>
</svg>
