<svg width="173" height="57" viewBox="0 0 173 57" fill="none" xmlns="http://www.w3.org/2000/svg">
<rect y="0.28125" width="173" height="56" rx="4" fill="black"/>
<path d="M28.6 35.6613C27.3467 35.6613 26.24 35.4546 25.28 35.0412C24.3333 34.6146 23.5333 34.0479 22.88 33.3412C22.24 32.6212 21.7533 31.8146 21.42 30.9212C21.1 30.0146 20.94 29.0746 20.94 28.1012V27.6612C20.94 26.7412 21.1 25.8412 21.42 24.9612C21.74 24.0812 22.2067 23.2879 22.82 22.5812C23.4467 21.8746 24.2133 21.3146 25.12 20.9012C26.04 20.4746 27.0933 20.2612 28.28 20.2612C29.56 20.2612 30.6933 20.5012 31.68 20.9812C32.6667 21.4479 33.46 22.1079 34.06 22.9612C34.66 23.8012 35.0133 24.7812 35.12 25.9012H32.26C32.1667 25.2746 31.9333 24.7412 31.56 24.3012C31.1867 23.8479 30.7133 23.5012 30.14 23.2612C29.58 23.0212 28.96 22.9012 28.28 22.9012C27.6 22.9012 26.98 23.0212 26.42 23.2612C25.8733 23.5012 25.4067 23.8412 25.02 24.2812C24.6333 24.7212 24.3333 25.2479 24.12 25.8612C23.92 26.4746 23.82 27.1546 23.82 27.9012C23.82 28.7146 23.9333 29.4412 24.16 30.0812C24.3867 30.7212 24.7067 31.2679 25.12 31.7212C25.5333 32.1612 26.0333 32.5012 26.62 32.7412C27.2067 32.9679 27.8667 33.0812 28.6 33.0812C29.5733 33.0812 30.4267 32.8812 31.16 32.4812C31.8933 32.0679 32.4267 31.5346 32.76 30.8812L32.26 33.1812V29.4212H34.88V32.6612C34.2533 33.6079 33.4 34.3479 32.32 34.8812C31.24 35.4013 30 35.6613 28.6 35.6613ZM28.14 29.9812V27.8612H36.1V29.9812H28.14ZM43.4806 35.6613C42.5473 35.6613 41.7273 35.5013 41.0206 35.1812C40.3273 34.8612 39.7473 34.4346 39.2806 33.9012C38.8273 33.3546 38.4806 32.7479 38.2406 32.0812C38.014 31.4146 37.9006 30.7346 37.9006 30.0412V29.6612C37.9006 28.9412 38.014 28.2479 38.2406 27.5812C38.4806 26.9012 38.8273 26.3012 39.2806 25.7812C39.7473 25.2479 40.3206 24.8279 41.0006 24.5212C41.6806 24.2012 42.4673 24.0412 43.3606 24.0412C44.534 24.0412 45.514 24.3012 46.3006 24.8212C47.1006 25.3279 47.7006 26.0012 48.1006 26.8412C48.5006 27.6679 48.7006 28.5612 48.7006 29.5212V30.5212H39.0806V28.8212H46.9606L46.1006 29.6612C46.1006 28.9679 46.0006 28.3746 45.8006 27.8812C45.6006 27.3879 45.294 27.0079 44.8806 26.7412C44.4806 26.4746 43.974 26.3412 43.3606 26.3412C42.7473 26.3412 42.2273 26.4812 41.8006 26.7612C41.374 27.0412 41.0473 27.4479 40.8206 27.9812C40.6073 28.5012 40.5006 29.1279 40.5006 29.8612C40.5006 30.5412 40.6073 31.1479 40.8206 31.6812C41.034 32.2012 41.3606 32.6146 41.8006 32.9212C42.2406 33.2146 42.8006 33.3612 43.4806 33.3612C44.1606 33.3612 44.714 33.2279 45.1406 32.9612C45.5673 32.6812 45.8406 32.3412 45.9606 31.9412H48.5206C48.3606 32.6879 48.054 33.3412 47.6006 33.9012C47.1473 34.4612 46.5673 34.8946 45.8606 35.2012C45.1673 35.5079 44.374 35.6613 43.4806 35.6613ZM56.143 35.4213C55.143 35.4213 54.3163 35.2946 53.663 35.0412C53.023 34.7746 52.543 34.3346 52.223 33.7212C51.903 33.0946 51.743 32.2546 51.743 31.2012L51.763 21.3612H54.363L54.343 31.3812C54.343 31.9146 54.483 32.3279 54.763 32.6212C55.0563 32.9012 55.4696 33.0412 56.003 33.0412H57.703V35.4213H56.143ZM50.023 26.4612V24.4212H57.703V26.4612H50.023ZM65.4127 35.2812V20.6812H68.2527V35.2812H65.4127ZM72.0761 35.2812V24.4212H74.2761V29.0812H74.0761C74.0761 27.9746 74.2228 27.0546 74.5161 26.3212C74.8094 25.5746 75.2428 25.0146 75.8161 24.6412C76.4028 24.2679 77.1294 24.0812 77.9961 24.0812H78.1161C79.4094 24.0812 80.3894 24.5012 81.0561 25.3412C81.7228 26.1679 82.0561 27.4079 82.0561 29.0612V35.2812H79.2761V28.8212C79.2761 28.1546 79.0828 27.6146 78.6961 27.2012C78.3228 26.7879 77.8028 26.5812 77.1361 26.5812C76.4561 26.5812 75.9028 26.7946 75.4761 27.2212C75.0628 27.6346 74.8561 28.1946 74.8561 28.9012V35.2812H72.0761ZM93.2613 35.2812V22.7812H96.1013V35.2812H93.2613ZM89.0413 23.1812V20.6812H100.321V23.1812H89.0413ZM106.641 35.6613C105.681 35.6613 104.834 35.5079 104.101 35.2012C103.367 34.8946 102.747 34.4812 102.241 33.9613C101.734 33.4279 101.347 32.8279 101.081 32.1612C100.827 31.4946 100.701 30.8012 100.701 30.0812V29.6612C100.701 28.9146 100.834 28.2079 101.101 27.5412C101.381 26.8612 101.774 26.2612 102.281 25.7412C102.801 25.2079 103.427 24.7946 104.161 24.5012C104.894 24.1946 105.721 24.0412 106.641 24.0412C107.561 24.0412 108.387 24.1946 109.121 24.5012C109.854 24.7946 110.474 25.2079 110.981 25.7412C111.501 26.2612 111.894 26.8612 112.161 27.5412C112.427 28.2079 112.561 28.9146 112.561 29.6612V30.0812C112.561 30.8012 112.427 31.4946 112.161 32.1612C111.907 32.8279 111.527 33.4279 111.021 33.9613C110.514 34.4812 109.894 34.8946 109.161 35.2012C108.427 35.5079 107.587 35.6613 106.641 35.6613ZM106.641 33.2812C107.321 33.2812 107.894 33.1346 108.361 32.8412C108.827 32.5346 109.181 32.1279 109.421 31.6212C109.661 31.1012 109.781 30.5146 109.781 29.8612C109.781 29.1946 109.654 28.6079 109.401 28.1012C109.161 27.5812 108.801 27.1746 108.321 26.8812C107.854 26.5746 107.294 26.4212 106.641 26.4212C105.987 26.4212 105.421 26.5746 104.941 26.8812C104.474 27.1746 104.114 27.5812 103.861 28.1012C103.607 28.6079 103.481 29.1946 103.481 29.8612C103.481 30.5146 103.601 31.1012 103.841 31.6212C104.094 32.1279 104.454 32.5346 104.921 32.8412C105.387 33.1346 105.961 33.2812 106.641 33.2812ZM119.095 35.6213C117.842 35.6213 116.868 35.2079 116.175 34.3812C115.495 33.5546 115.155 32.3279 115.155 30.7012V24.4012H117.935V30.9412C117.935 31.6079 118.122 32.1412 118.495 32.5412C118.868 32.9279 119.375 33.1212 120.015 33.1212C120.655 33.1212 121.175 32.9146 121.575 32.5012C121.988 32.0879 122.195 31.5279 122.195 30.8212V24.4012H124.975V35.2812H122.775V30.6612H122.995C122.995 31.7546 122.855 32.6679 122.575 33.4012C122.295 34.1346 121.875 34.6879 121.315 35.0612C120.755 35.4346 120.055 35.6213 119.215 35.6213H119.095ZM133.388 35.6613C132.442 35.6613 131.622 35.5013 130.928 35.1812C130.248 34.8612 129.675 34.4346 129.208 33.9012C128.755 33.3679 128.415 32.7679 128.188 32.1012C127.962 31.4346 127.848 30.7546 127.848 30.0612V29.6812C127.848 28.9479 127.962 28.2479 128.188 27.5812C128.428 26.9012 128.782 26.3012 129.248 25.7812C129.715 25.2479 130.288 24.8279 130.968 24.5212C131.662 24.2012 132.462 24.0412 133.368 24.0412C134.315 24.0412 135.162 24.2279 135.908 24.6012C136.655 24.9612 137.248 25.4679 137.688 26.1212C138.142 26.7746 138.395 27.5346 138.448 28.4012H135.748C135.682 27.8412 135.442 27.3746 135.028 27.0012C134.628 26.6279 134.075 26.4412 133.368 26.4412C132.755 26.4412 132.242 26.5879 131.828 26.8812C131.428 27.1746 131.128 27.5812 130.928 28.1012C130.728 28.6079 130.628 29.1946 130.628 29.8612C130.628 30.5012 130.722 31.0812 130.908 31.6012C131.108 32.1212 131.408 32.5279 131.808 32.8212C132.222 33.1146 132.748 33.2612 133.388 33.2612C133.868 33.2612 134.282 33.1746 134.628 33.0012C134.975 32.8279 135.248 32.5879 135.448 32.2812C135.662 31.9746 135.795 31.6279 135.848 31.2412H138.548C138.495 32.1212 138.235 32.8946 137.768 33.5612C137.315 34.2146 136.708 34.7279 135.948 35.1012C135.202 35.4746 134.348 35.6613 133.388 35.6613ZM141.175 35.2812V20.6812H143.955V29.2012H143.475C143.475 28.1079 143.615 27.1812 143.895 26.4212C144.175 25.6612 144.589 25.0812 145.135 24.6812C145.695 24.2812 146.402 24.0812 147.255 24.0812H147.375C148.615 24.0812 149.555 24.5079 150.195 25.3612C150.835 26.2146 151.155 27.4546 151.155 29.0812V35.2812H148.375V28.8212C148.375 28.1279 148.175 27.5812 147.775 27.1812C147.389 26.7812 146.875 26.5812 146.235 26.5812C145.555 26.5812 145.002 26.8079 144.575 27.2612C144.162 27.7012 143.955 28.2812 143.955 29.0012V35.2812H141.175Z" fill="white"/>
</svg>
