<svg width="57" height="56" viewBox="0 0 57 56" fill="none" xmlns="http://www.w3.org/2000/svg">
<path d="M49.7333 25.7833L30.7166 6.76665C30.1333 6.18331 29.3166 5.83331 28.4999 5.83331C27.6833 5.83331 26.8666 6.18331 26.2833 6.76665L22.1999 10.85L26.9833 15.6333C27.4499 15.4 27.9166 15.2833 28.4999 15.2833C30.4833 15.2833 31.9999 16.8 31.9999 18.7833C31.9999 19.3666 31.8833 19.8333 31.6499 20.3L36.3166 24.9666C36.7833 24.7333 37.2499 24.6166 37.8333 24.6166C39.8166 24.6166 41.3333 26.1333 41.3333 28.1166C41.3333 30.1 39.8166 31.6166 37.8333 31.6166C35.8499 31.6166 34.3333 30.1 34.3333 28.1166C34.3333 27.5333 34.4499 27.0666 34.6833 26.6L30.0166 21.9333C29.8999 21.9333 29.7833 22.05 29.6666 22.05V34.1833C31.0666 34.65 31.9999 35.9333 31.9999 37.45C31.9999 39.4333 30.4833 40.95 28.4999 40.95C26.5166 40.95 24.9999 39.4333 24.9999 37.45C24.9999 35.9333 25.9333 34.65 27.3333 34.1833V21.9333C25.9333 21.4666 24.9999 20.1833 24.9999 18.6666C24.9999 18.0833 25.1166 17.6166 25.3499 17.15L20.5666 12.3666L7.26659 25.7833C6.68325 26.3666 6.33325 27.1833 6.33325 28C6.33325 28.8166 6.68325 29.6333 7.26659 30.2166L26.2833 49.2333C26.8666 49.8167 27.6833 50.1666 28.4999 50.1666C29.3166 50.1666 30.1333 49.8167 30.7166 49.2333L49.7333 30.2166C50.3166 29.6333 50.6666 28.8166 50.6666 28C50.6666 27.1833 50.3166 26.3666 49.7333 25.7833Z" fill="black"/>
</svg>
