<svg width="177" height="37" viewBox="0 0 177 37" fill="none" xmlns="http://www.w3.org/2000/svg">
<mask id="path-1-outside-1_43_2657" maskUnits="userSpaceOnUse" x="-3" y="-3" width="183" height="43" fill="black">
<rect fill="white" x="-3" y="-3" width="183" height="43"/>
<path d="M18.2 36V28.224H16.76V19.92C16.76 18.704 16.472 17.808 15.896 17.232C15.352 16.624 14.44 16.32 13.16 16.32C12.552 16.32 11.656 16.336 10.472 16.368C9.288 16.4 8.04 16.448 6.728 16.512C5.416 16.576 4.216 16.64 3.128 16.704V9.408C3.896 9.344 4.808 9.28 5.864 9.216C6.92 9.152 8.008 9.104 9.128 9.072C10.28 9.04 11.336 9.024 12.296 9.024C15.016 9.024 17.32 9.424 19.208 10.224C21.128 11.024 22.584 12.224 23.576 13.824C24.6 15.424 25.112 17.456 25.112 19.92V36H18.2ZM9.8 36.672C7.944 36.672 6.296 36.336 4.856 35.664C3.416 34.992 2.28 34.032 1.448 32.784C0.648 31.504 0.248 29.984 0.248 28.224C0.248 26.24 0.776 24.64 1.832 23.424C2.888 22.176 4.344 21.264 6.2 20.688C8.056 20.112 10.184 19.824 12.584 19.824H17.72V24.336H12.584C11.4 24.336 10.488 24.64 9.848 25.248C9.208 25.824 8.888 26.608 8.888 27.6C8.888 28.56 9.208 29.344 9.848 29.952C10.488 30.528 11.4 30.816 12.584 30.816C13.352 30.816 14.024 30.688 14.6 30.432C15.208 30.144 15.704 29.664 16.088 28.992C16.472 28.32 16.696 27.392 16.76 26.208L18.776 28.128C18.616 29.952 18.168 31.504 17.432 32.784C16.728 34.032 15.736 34.992 14.456 35.664C13.208 36.336 11.656 36.672 9.8 36.672ZM29.9893 36V9.504H36.9013V21.024H36.8053C36.8053 17.312 37.5733 14.4 39.1093 12.288C40.6773 10.176 42.9173 9.12 45.8293 9.12H46.8853V16.608H44.8693C42.9173 16.608 41.3973 17.136 40.3093 18.192C39.2533 19.248 38.7253 20.768 38.7253 22.752V36H29.9893ZM65.2175 36V28.224H63.7775V19.92C63.7775 18.704 63.4895 17.808 62.9135 17.232C62.3695 16.624 61.4575 16.32 60.1775 16.32C59.5695 16.32 58.6735 16.336 57.4895 16.368C56.3055 16.4 55.0575 16.448 53.7455 16.512C52.4335 16.576 51.2335 16.64 50.1455 16.704V9.408C50.9135 9.344 51.8255 9.28 52.8815 9.216C53.9375 9.152 55.0255 9.104 56.1455 9.072C57.2975 9.04 58.3535 9.024 59.3135 9.024C62.0335 9.024 64.3375 9.424 66.2255 10.224C68.1455 11.024 69.6015 12.224 70.5935 13.824C71.6175 15.424 72.1295 17.456 72.1295 19.92V36H65.2175ZM56.8175 36.672C54.9615 36.672 53.3135 36.336 51.8735 35.664C50.4335 34.992 49.2975 34.032 48.4655 32.784C47.6655 31.504 47.2655 29.984 47.2655 28.224C47.2655 26.24 47.7935 24.64 48.8495 23.424C49.9055 22.176 51.3615 21.264 53.2175 20.688C55.0735 20.112 57.2015 19.824 59.6015 19.824H64.7375V24.336H59.6015C58.4175 24.336 57.5055 24.64 56.8655 25.248C56.2255 25.824 55.9055 26.608 55.9055 27.6C55.9055 28.56 56.2255 29.344 56.8655 29.952C57.5055 30.528 58.4175 30.816 59.6015 30.816C60.3695 30.816 61.0415 30.688 61.6175 30.432C62.2255 30.144 62.7215 29.664 63.1055 28.992C63.4895 28.32 63.7135 27.392 63.7775 26.208L65.7935 28.128C65.6335 29.952 65.1855 31.504 64.4495 32.784C63.7455 34.032 62.7535 34.992 61.4735 35.664C60.2255 36.336 58.6735 36.672 56.8175 36.672ZM94.0948 36.864C91.9188 36.864 90.0148 36.416 88.3828 35.52C86.7828 34.624 85.5188 33.312 84.5908 31.584C83.6948 29.856 83.2148 27.744 83.1508 25.248H83.9188V36H77.0068V0.959999H85.7428V19.008L83.8228 20.928C83.9188 18.336 84.4148 16.128 85.3108 14.304C86.2068 12.48 87.4388 11.104 89.0068 10.176C90.6068 9.216 92.4468 8.736 94.5268 8.736C96.3188 8.736 97.9348 9.072 99.3748 9.744C100.815 10.384 102.031 11.312 103.023 12.528C104.047 13.712 104.831 15.12 105.375 16.752C105.919 18.384 106.191 20.176 106.191 22.128V23.28C106.191 25.232 105.919 27.04 105.375 28.704C104.831 30.336 104.031 31.776 102.975 33.024C101.919 34.24 100.639 35.184 99.1348 35.856C97.6628 36.528 95.9828 36.864 94.0948 36.864ZM91.5988 29.664C92.7508 29.664 93.7588 29.376 94.6228 28.8C95.5188 28.192 96.2068 27.36 96.6868 26.304C97.1988 25.248 97.4548 24.048 97.4548 22.704C97.4548 21.328 97.1988 20.144 96.6868 19.152C96.2068 18.128 95.5348 17.344 94.6708 16.8C93.8068 16.224 92.7828 15.936 91.5988 15.936C90.5428 15.936 89.5508 16.176 88.6228 16.656C87.7268 17.136 86.9908 17.84 86.4148 18.768C85.8388 19.696 85.5508 20.816 85.5508 22.128V23.76C85.5508 25.008 85.8548 26.08 86.4628 26.976C87.0708 27.84 87.8388 28.512 88.7668 28.992C89.6948 29.44 90.6388 29.664 91.5988 29.664ZM122.463 36.96C120.223 36.96 118.239 36.576 116.511 35.808C114.783 35.04 113.327 34 112.143 32.688C110.959 31.376 110.047 29.904 109.407 28.272C108.799 26.64 108.495 24.96 108.495 23.232V22.272C108.495 20.48 108.799 18.768 109.407 17.136C110.047 15.472 110.943 14 112.095 12.72C113.279 11.44 114.719 10.432 116.415 9.696C118.111 8.928 120.031 8.544 122.175 8.544C125.023 8.544 127.439 9.184 129.423 10.464C131.407 11.744 132.927 13.44 133.983 15.552C135.039 17.632 135.567 19.904 135.567 22.368V25.152H112.143V20.448H130.527L127.503 22.56C127.503 21.056 127.295 19.792 126.879 18.768C126.495 17.712 125.903 16.912 125.103 16.368C124.335 15.824 123.359 15.552 122.175 15.552C121.023 15.552 120.015 15.824 119.151 16.368C118.319 16.88 117.679 17.68 117.231 18.768C116.783 19.824 116.559 21.168 116.559 22.8C116.559 24.272 116.767 25.552 117.183 26.64C117.599 27.696 118.239 28.512 119.103 29.088C119.967 29.664 121.087 29.952 122.463 29.952C123.679 29.952 124.671 29.744 125.439 29.328C126.239 28.912 126.799 28.352 127.119 27.648H135.087C134.703 29.44 133.935 31.04 132.783 32.448C131.663 33.856 130.223 34.96 128.463 35.76C126.735 36.56 124.735 36.96 122.463 36.96ZM139.596 36V0.959999H148.332V36H139.596ZM136.62 7.296V0.959999H148.332V7.296H136.62ZM169.846 36V28.224H168.406V19.92C168.406 18.704 168.118 17.808 167.542 17.232C166.998 16.624 166.086 16.32 164.806 16.32C164.198 16.32 163.302 16.336 162.118 16.368C160.934 16.4 159.686 16.448 158.374 16.512C157.062 16.576 155.862 16.64 154.774 16.704V9.408C155.542 9.344 156.454 9.28 157.51 9.216C158.566 9.152 159.654 9.104 160.774 9.072C161.926 9.04 162.982 9.024 163.942 9.024C166.662 9.024 168.966 9.424 170.854 10.224C172.774 11.024 174.23 12.224 175.222 13.824C176.246 15.424 176.758 17.456 176.758 19.92V36H169.846ZM161.446 36.672C159.59 36.672 157.942 36.336 156.502 35.664C155.062 34.992 153.926 34.032 153.094 32.784C152.294 31.504 151.894 29.984 151.894 28.224C151.894 26.24 152.422 24.64 153.478 23.424C154.534 22.176 155.99 21.264 157.846 20.688C159.702 20.112 161.83 19.824 164.23 19.824H169.366V24.336H164.23C163.046 24.336 162.134 24.64 161.494 25.248C160.854 25.824 160.534 26.608 160.534 27.6C160.534 28.56 160.854 29.344 161.494 29.952C162.134 30.528 163.046 30.816 164.23 30.816C164.998 30.816 165.67 30.688 166.246 30.432C166.854 30.144 167.35 29.664 167.734 28.992C168.118 28.32 168.342 27.392 168.406 26.208L170.422 28.128C170.262 29.952 169.814 31.504 169.078 32.784C168.374 34.032 167.382 34.992 166.102 35.664C164.854 36.336 163.302 36.672 161.446 36.672Z"/>
</mask>
<path d="M18.2 36H15.2V39H18.2V36ZM18.2 28.224H21.2V25.224H18.2V28.224ZM16.76 28.224H13.76V31.224H16.76V28.224ZM15.896 17.232L13.6603 19.2324L13.7158 19.2944L13.7747 19.3533L15.896 17.232ZM10.472 16.368L10.5531 19.3669L10.5531 19.3669L10.472 16.368ZM6.728 16.512L6.87417 19.5084L6.728 16.512ZM3.128 16.704H0.128V19.8857L3.30417 19.6988L3.128 16.704ZM3.128 9.408L2.87886 6.41836L0.128 6.6476V9.408H3.128ZM5.864 9.216L5.68252 6.22149L5.864 9.216ZM9.128 9.072L9.0447 6.07315L9.04232 6.07322L9.128 9.072ZM19.208 10.224L18.0376 12.9863L18.0458 12.9898L18.0542 12.9932L19.208 10.224ZM23.576 13.824L21.0263 15.4048L21.0376 15.4231L21.0492 15.4412L23.576 13.824ZM25.112 36V39H28.112V36H25.112ZM1.448 32.784L-1.09599 34.374L-1.07262 34.4114L-1.04815 34.4481L1.448 32.784ZM1.832 23.424L4.0971 25.3911L4.10972 25.3765L4.12216 25.3618L1.832 23.424ZM6.2 20.688L7.0892 23.5532L7.0892 23.5532L6.2 20.688ZM17.72 19.824H20.72V16.824H17.72V19.824ZM17.72 24.336V27.336H20.72V24.336H17.72ZM9.848 25.248L11.8549 27.4779L11.8849 27.4508L11.9142 27.423L9.848 25.248ZM9.848 29.952L7.78175 32.127L7.81106 32.1548L7.84111 32.1819L9.848 29.952ZM14.6 30.432L15.8184 33.1734L15.8515 33.1587L15.8843 33.1432L14.6 30.432ZM16.088 28.992L13.4833 27.5036L13.4833 27.5036L16.088 28.992ZM16.76 26.208L18.829 24.0356L14.1157 19.5467L13.7644 26.0461L16.76 26.208ZM18.776 28.128L21.7645 28.3902L21.8907 26.9515L20.845 25.9556L18.776 28.128ZM17.432 32.784L14.8313 31.2886L14.8251 31.2993L14.8191 31.31L17.432 32.784ZM14.456 35.664L13.0615 33.0078L13.0476 33.0151L13.0337 33.0226L14.456 35.664ZM21.2 36V28.224H15.2V36H21.2ZM18.2 25.224H16.76V31.224H18.2V25.224ZM19.76 28.224V19.92H13.76V28.224H19.76ZM19.76 19.92C19.76 18.2966 19.3811 16.4745 18.0173 15.1107L13.7747 19.3533C13.6768 19.2554 13.667 19.1891 13.6879 19.254C13.7134 19.3333 13.76 19.5376 13.76 19.92H19.76ZM18.1317 15.2316C16.7625 13.7013 14.8141 13.32 13.16 13.32V19.32C13.5777 19.32 13.7876 19.3715 13.8553 19.394C13.9049 19.4106 13.7939 19.3818 13.6603 19.2324L18.1317 15.2316ZM13.16 13.32C12.5104 13.32 11.5818 13.3369 10.3909 13.3691L10.5531 19.3669C11.7302 19.3351 12.5936 19.32 13.16 19.32V13.32ZM10.3909 13.3691C9.18305 13.4017 7.91323 13.4506 6.58183 13.5156L6.87417 19.5084C8.16677 19.4454 9.39295 19.3983 10.5531 19.3669L10.3909 13.3691ZM6.58183 13.5156C5.26178 13.58 4.0516 13.6445 2.95183 13.7092L3.30417 19.6988C4.3804 19.6355 5.57022 19.572 6.87417 19.5084L6.58183 13.5156ZM6.128 16.704V9.408H0.128V16.704H6.128ZM3.37714 12.3976C4.11608 12.3361 5.0044 12.2736 6.04548 12.2105L5.68252 6.22149C4.6116 6.2864 3.67592 6.35194 2.87886 6.41836L3.37714 12.3976ZM6.04548 12.2105C7.06777 12.1485 8.12378 12.1019 9.21368 12.0708L9.04232 6.07322C7.89222 6.10608 6.77223 6.15545 5.68252 6.22149L6.04548 12.2105ZM9.2113 12.0708C10.3408 12.0395 11.3686 12.024 12.296 12.024V6.024C11.3034 6.024 10.2192 6.04053 9.0447 6.07315L9.2113 12.0708ZM12.296 12.024C14.7383 12.024 16.6194 12.3853 18.0376 12.9863L20.3784 7.46175C18.0206 6.46266 15.2937 6.024 12.296 6.024V12.024ZM18.0542 12.9932C19.4598 13.5789 20.3987 14.3926 21.0263 15.4048L26.1257 12.2432C24.7693 10.0554 22.7962 8.46908 20.3618 7.45477L18.0542 12.9932ZM21.0492 15.4412C21.6847 16.4342 22.112 17.8614 22.112 19.92H28.112C28.112 17.0506 27.5153 14.4138 26.1028 12.2068L21.0492 15.4412ZM22.112 19.92V36H28.112V19.92H22.112ZM25.112 33H18.2V39H25.112V33ZM9.8 33.672C8.30923 33.672 7.10608 33.4034 6.12466 32.9455L3.58734 38.3825C5.48592 39.2686 7.57877 39.672 9.8 39.672V33.672ZM6.12466 32.9455C5.15181 32.4915 4.45293 31.8831 3.94415 31.1199L-1.04815 34.4481C0.107066 36.1809 1.68019 37.4925 3.58734 38.3825L6.12466 32.9455ZM3.992 31.194C3.5366 30.4654 3.248 29.5167 3.248 28.224H-2.752C-2.752 30.4513 -2.2406 32.5426 -1.09599 34.374L3.992 31.194ZM3.248 28.224C3.248 26.7886 3.618 25.9428 4.0971 25.3911L-0.4331 21.4569C-2.066 23.3372 -2.752 25.6914 -2.752 28.224H3.248ZM4.12216 25.3618C4.74428 24.6266 5.67462 23.9922 7.0892 23.5532L5.3108 17.8228C3.01338 18.5358 1.03172 19.7254 -0.458159 21.4862L4.12216 25.3618ZM7.0892 23.5532C8.59891 23.0847 10.4176 22.824 12.584 22.824V16.824C9.95038 16.824 7.51309 17.1393 5.3108 17.8228L7.0892 23.5532ZM12.584 22.824H17.72V16.824H12.584V22.824ZM14.72 19.824V24.336H20.72V19.824H14.72ZM17.72 21.336H12.584V27.336H17.72V21.336ZM12.584 21.336C10.8994 21.336 9.14751 21.7755 7.78175 23.073L11.9142 27.423C11.8878 27.4481 11.8842 27.4355 11.9607 27.41C12.0494 27.3805 12.2427 27.336 12.584 27.336V21.336ZM7.84111 23.0181C6.47018 24.2519 5.888 25.9002 5.888 27.6H11.888C11.888 27.4271 11.9154 27.3776 11.9055 27.4017C11.9011 27.4125 11.8923 27.4301 11.8789 27.449C11.8727 27.4579 11.8669 27.465 11.8621 27.4704C11.8573 27.4757 11.8546 27.4781 11.8549 27.4779L7.84111 23.0181ZM5.888 27.6C5.888 29.3024 6.48997 30.8998 7.78175 32.127L11.9142 27.777C11.8981 27.7616 11.8948 27.7557 11.8976 27.7598C11.9007 27.7643 11.9039 27.7702 11.9055 27.7743C11.9108 27.7872 11.888 27.7429 11.888 27.6H5.888ZM7.84111 32.1819C9.20942 33.4134 10.9385 33.816 12.584 33.816V27.816C11.8615 27.816 11.7666 27.6426 11.8549 27.7221L7.84111 32.1819ZM12.584 33.816C13.6821 33.816 14.7846 33.6329 15.8184 33.1734L13.3816 27.6906C13.2634 27.7431 13.0219 27.816 12.584 27.816V33.816ZM15.8843 33.1432C17.1276 32.5543 18.0514 31.6027 18.6927 30.4804L13.4833 27.5036C13.415 27.6231 13.3633 27.6793 13.3417 27.7002C13.3228 27.7185 13.3162 27.7206 13.3157 27.7208L15.8843 33.1432ZM18.6927 30.4804C19.3993 29.244 19.6786 27.7951 19.7556 26.3699L13.7644 26.0461C13.7134 26.9889 13.5447 27.396 13.4833 27.5036L18.6927 30.4804ZM14.691 28.3804L16.707 30.3004L20.845 25.9556L18.829 24.0356L14.691 28.3804ZM15.7875 27.8658C15.6567 29.3571 15.3042 30.4661 14.8313 31.2886L20.0327 34.2794C21.0318 32.5419 21.5753 30.5469 21.7645 28.3902L15.7875 27.8658ZM14.8191 31.31C14.4016 32.0501 13.8349 32.6018 13.0615 33.0078L15.8505 38.3202C17.6371 37.3822 19.0544 36.0139 20.0449 34.258L14.8191 31.31ZM13.0337 33.0226C12.3372 33.3976 11.3081 33.672 9.8 33.672V39.672C12.0039 39.672 14.0788 39.2744 15.8783 38.3054L13.0337 33.0226ZM29.9893 36H26.9893V39H29.9893V36ZM29.9893 9.504V6.504H26.9893V9.504H29.9893ZM36.9013 9.504H39.9013V6.504H36.9013V9.504ZM36.9013 21.024V24.024H39.9013V21.024H36.9013ZM36.8053 21.024H33.8053V24.024H36.8053V21.024ZM39.1093 12.288L36.7005 10.4997L36.6917 10.5115L36.683 10.5235L39.1093 12.288ZM46.8853 9.12H49.8853V6.12H46.8853V9.12ZM46.8853 16.608V19.608H49.8853V16.608H46.8853ZM40.3093 18.192L38.2198 16.0393L38.2038 16.0548L38.1879 16.0707L40.3093 18.192ZM38.7253 36V39H41.7253V36H38.7253ZM32.9893 36V9.504H26.9893V36H32.9893ZM29.9893 12.504H36.9013V6.504H29.9893V12.504ZM33.9013 9.504V21.024H39.9013V9.504H33.9013ZM36.9013 18.024H36.8053V24.024H36.9013V18.024ZM39.8053 21.024C39.8053 17.6877 40.5 15.4763 41.5355 14.0525L36.683 10.5235C34.6465 13.3237 33.8053 16.9363 33.8053 21.024H39.8053ZM41.518 14.0763C42.4536 12.8161 43.7494 12.12 45.8293 12.12V6.12C42.0851 6.12 38.9009 7.53589 36.7005 10.4997L41.518 14.0763ZM45.8293 12.12H46.8853V6.12H45.8293V12.12ZM43.8853 9.12V16.608H49.8853V9.12H43.8853ZM46.8853 13.608H44.8693V19.608H46.8853V13.608ZM44.8693 13.608C42.3705 13.608 40.0154 14.2965 38.2198 16.0393L42.3987 20.3447C42.7791 19.9755 43.464 19.608 44.8693 19.608V13.608ZM38.1879 16.0707C36.4033 17.8553 35.7253 20.2427 35.7253 22.752H41.7253C41.7253 21.2933 42.1032 20.6407 42.4306 20.3133L38.1879 16.0707ZM35.7253 22.752V36H41.7253V22.752H35.7253ZM38.7253 33H29.9893V39H38.7253V33ZM65.2175 36H62.2175V39H65.2175V36ZM65.2175 28.224H68.2175V25.224H65.2175V28.224ZM63.7775 28.224H60.7775V31.224H63.7775V28.224ZM62.9135 17.232L60.6778 19.2324L60.7333 19.2944L60.7922 19.3533L62.9135 17.232ZM57.4895 16.368L57.5706 19.3669L57.5706 19.3669L57.4895 16.368ZM53.7455 16.512L53.8917 19.5084L53.7455 16.512ZM50.1455 16.704H47.1455V19.8857L50.3217 19.6988L50.1455 16.704ZM50.1455 9.408L49.8964 6.41836L47.1455 6.6476V9.408H50.1455ZM52.8815 9.216L52.7 6.22149L52.8815 9.216ZM56.1455 9.072L56.0622 6.07315L56.0598 6.07322L56.1455 9.072ZM66.2255 10.224L65.0551 12.9863L65.0633 12.9898L65.0717 12.9932L66.2255 10.224ZM70.5935 13.824L68.0438 15.4048L68.0551 15.4231L68.0667 15.4412L70.5935 13.824ZM72.1295 36V39H75.1295V36H72.1295ZM48.4655 32.784L45.9215 34.374L45.9449 34.4114L45.9694 34.4481L48.4655 32.784ZM48.8495 23.424L51.1146 25.3911L51.1272 25.3765L51.1397 25.3618L48.8495 23.424ZM53.2175 20.688L54.1067 23.5532L54.1067 23.5532L53.2175 20.688ZM64.7375 19.824H67.7375V16.824H64.7375V19.824ZM64.7375 24.336V27.336H67.7375V24.336H64.7375ZM56.8655 25.248L58.8724 27.4779L58.9024 27.4508L58.9318 27.423L56.8655 25.248ZM56.8655 29.952L54.7993 32.127L54.8286 32.1548L54.8586 32.1819L56.8655 29.952ZM61.6175 30.432L62.8359 33.1734L62.869 33.1587L62.9018 33.1432L61.6175 30.432ZM63.1055 28.992L60.5008 27.5036L60.5008 27.5036L63.1055 28.992ZM63.7775 26.208L65.8465 24.0356L61.1332 19.5467L60.7819 26.0461L63.7775 26.208ZM65.7935 28.128L68.782 28.3902L68.9082 26.9515L67.8625 25.9556L65.7935 28.128ZM64.4495 32.784L61.8488 31.2886L61.8426 31.2993L61.8366 31.31L64.4495 32.784ZM61.4735 35.664L60.079 33.0078L60.0651 33.0151L60.0512 33.0226L61.4735 35.664ZM68.2175 36V28.224H62.2175V36H68.2175ZM65.2175 25.224H63.7775V31.224H65.2175V25.224ZM66.7775 28.224V19.92H60.7775V28.224H66.7775ZM66.7775 19.92C66.7775 18.2966 66.3986 16.4745 65.0348 15.1107L60.7922 19.3533C60.6943 19.2554 60.6845 19.1891 60.7054 19.254C60.7309 19.3333 60.7775 19.5376 60.7775 19.92H66.7775ZM65.1492 15.2316C63.78 13.7013 61.8316 13.32 60.1775 13.32V19.32C60.5952 19.32 60.8051 19.3715 60.8728 19.394C60.9224 19.4106 60.8114 19.3818 60.6778 19.2324L65.1492 15.2316ZM60.1775 13.32C59.5279 13.32 58.5993 13.3369 57.4084 13.3691L57.5706 19.3669C58.7477 19.3351 59.6111 19.32 60.1775 19.32V13.32ZM57.4085 13.3691C56.2006 13.4017 54.9307 13.4506 53.5993 13.5156L53.8917 19.5084C55.1843 19.4454 56.4105 19.3983 57.5706 19.3669L57.4085 13.3691ZM53.5993 13.5156C52.2793 13.58 51.0691 13.6445 49.9693 13.7092L50.3217 19.6988C51.3979 19.6355 52.5877 19.572 53.8917 19.5084L53.5993 13.5156ZM53.1455 16.704V9.408H47.1455V16.704H53.1455ZM50.3946 12.3976C51.1336 12.3361 52.0219 12.2736 53.063 12.2105L52.7 6.22149C51.6291 6.2864 50.6934 6.35194 49.8964 6.41836L50.3946 12.3976ZM53.063 12.2105C54.0853 12.1485 55.1413 12.1019 56.2312 12.0708L56.0598 6.07322C54.9097 6.10608 53.7897 6.15545 52.7 6.22149L53.063 12.2105ZM56.2288 12.0708C57.3583 12.0395 58.3861 12.024 59.3135 12.024V6.024C58.3209 6.024 57.2367 6.04053 56.0622 6.07315L56.2288 12.0708ZM59.3135 12.024C61.7558 12.024 63.6369 12.3853 65.0551 12.9863L67.396 7.46175C65.0381 6.46266 62.3112 6.024 59.3135 6.024V12.024ZM65.0717 12.9932C66.4773 13.5789 67.4162 14.3926 68.0438 15.4048L73.1432 12.2432C71.7868 10.0554 69.8137 8.46908 67.3793 7.45477L65.0717 12.9932ZM68.0667 15.4412C68.7022 16.4342 69.1295 17.8614 69.1295 19.92H75.1295C75.1295 17.0506 74.5328 14.4138 73.1203 12.2068L68.0667 15.4412ZM69.1295 19.92V36H75.1295V19.92H69.1295ZM72.1295 33H65.2175V39H72.1295V33ZM56.8175 33.672C55.3267 33.672 54.1236 33.4034 53.1422 32.9455L50.6048 38.3825C52.5034 39.2686 54.5963 39.672 56.8175 39.672V33.672ZM53.1422 32.9455C52.1693 32.4915 51.4704 31.8831 50.9617 31.1199L45.9694 34.4481C47.1246 36.1809 48.6977 37.4925 50.6048 38.3825L53.1422 32.9455ZM51.0095 31.194C50.5541 30.4654 50.2655 29.5167 50.2655 28.224H44.2655C44.2655 30.4513 44.7769 32.5426 45.9215 34.374L51.0095 31.194ZM50.2655 28.224C50.2655 26.7886 50.6355 25.9428 51.1146 25.3911L46.5844 21.4569C44.9515 23.3372 44.2655 25.6914 44.2655 28.224H50.2655ZM51.1397 25.3618C51.7618 24.6266 52.6921 23.9922 54.1067 23.5532L52.3283 17.8228C50.0309 18.5358 48.0492 19.7254 46.5593 21.4862L51.1397 25.3618ZM54.1067 23.5532C55.6164 23.0847 57.4351 22.824 59.6015 22.824V16.824C56.9679 16.824 54.5306 17.1393 52.3283 17.8228L54.1067 23.5532ZM59.6015 22.824H64.7375V16.824H59.6015V22.824ZM61.7375 19.824V24.336H67.7375V19.824H61.7375ZM64.7375 21.336H59.6015V27.336H64.7375V21.336ZM59.6015 21.336C57.9169 21.336 56.165 21.7755 54.7993 23.073L58.9318 27.423C58.9053 27.4481 58.9017 27.4355 58.9782 27.41C59.0669 27.3805 59.2602 27.336 59.6015 27.336V21.336ZM54.8586 23.0181C53.4877 24.2519 52.9055 25.9002 52.9055 27.6H58.9055C58.9055 27.4271 58.9329 27.3776 58.923 27.4017C58.9186 27.4125 58.9098 27.4301 58.8964 27.449C58.8902 27.4579 58.8844 27.465 58.8796 27.4704C58.8748 27.4757 58.8721 27.4781 58.8724 27.4779L54.8586 23.0181ZM52.9055 27.6C52.9055 29.3024 53.5075 30.8998 54.7993 32.127L58.9318 27.777C58.9156 27.7616 58.9123 27.7557 58.9151 27.7598C58.9182 27.7643 58.9214 27.7702 58.923 27.7743C58.9283 27.7872 58.9055 27.7429 58.9055 27.6H52.9055ZM54.8586 32.1819C56.2269 33.4134 57.956 33.816 59.6015 33.816V27.816C58.879 27.816 58.7841 27.6426 58.8724 27.7221L54.8586 32.1819ZM59.6015 33.816C60.6996 33.816 61.8021 33.6329 62.8359 33.1734L60.3991 27.6906C60.2809 27.7431 60.0394 27.816 59.6015 27.816V33.816ZM62.9018 33.1432C64.1451 32.5543 65.0689 31.6027 65.7102 30.4804L60.5008 27.5036C60.4325 27.6231 60.3808 27.6793 60.3592 27.7002C60.3403 27.7185 60.3337 27.7206 60.3332 27.7208L62.9018 33.1432ZM65.7102 30.4804C66.4168 29.244 66.6961 27.7951 66.7731 26.3699L60.7819 26.0461C60.7309 26.9889 60.5622 27.396 60.5008 27.5036L65.7102 30.4804ZM61.7085 28.3804L63.7245 30.3004L67.8625 25.9556L65.8465 24.0356L61.7085 28.3804ZM62.805 27.8658C62.6742 29.3571 62.3217 30.4661 61.8488 31.2886L67.0502 34.2794C68.0493 32.5419 68.5928 30.5469 68.782 28.3902L62.805 27.8658ZM61.8366 31.31C61.4191 32.0501 60.8524 32.6018 60.079 33.0078L62.868 38.3202C64.6547 37.3822 66.0719 36.0139 67.0624 34.258L61.8366 31.31ZM60.0512 33.0226C59.3547 33.3976 58.3256 33.672 56.8175 33.672V39.672C59.0214 39.672 61.0963 39.2744 62.8958 38.3054L60.0512 33.0226ZM88.3828 35.52L86.9169 38.1375L86.9279 38.1437L86.939 38.1497L88.3828 35.52ZM84.5908 31.584L81.9275 32.965L81.9375 32.9842L81.9478 33.0034L84.5908 31.584ZM83.1508 25.248V22.248H80.0728L80.1517 25.3249L83.1508 25.248ZM83.9188 25.248H86.9188V22.248H83.9188V25.248ZM83.9188 36V39H86.9188V36H83.9188ZM77.0068 36H74.0068V39H77.0068V36ZM77.0068 0.959999V-2.04H74.0068V0.959999H77.0068ZM85.7428 0.959999H88.7428V-2.04H85.7428V0.959999ZM85.7428 19.008L87.8641 21.1293L88.7428 20.2506V19.008H85.7428ZM83.8228 20.928L80.8248 20.817L80.5421 28.4513L85.9441 23.0493L83.8228 20.928ZM85.3108 14.304L82.6181 12.9813L82.6181 12.9813L85.3108 14.304ZM89.0068 10.176L90.5347 12.7577L90.5425 12.7531L90.5502 12.7485L89.0068 10.176ZM99.3748 9.744L98.1061 12.4625L98.1311 12.4742L98.1563 12.4854L99.3748 9.744ZM103.023 12.528L100.698 14.4244L100.725 14.4578L100.754 14.4905L103.023 12.528ZM105.375 16.752L102.529 17.7007L102.529 17.7007L105.375 16.752ZM105.375 28.704L108.221 29.6527L108.224 29.6445L108.226 29.6362L105.375 28.704ZM102.975 33.024L105.24 34.9911L105.252 34.9765L105.265 34.9618L102.975 33.024ZM99.1348 35.856L97.9109 33.117L97.8999 33.1219L97.8889 33.1269L99.1348 35.856ZM94.6228 28.8L96.2869 31.2962L96.2971 31.2893L96.3073 31.2824L94.6228 28.8ZM96.6868 26.304L93.9873 24.9952L93.9711 25.0287L93.9557 25.0626L96.6868 26.304ZM96.6868 19.152L93.9704 20.4253L93.9947 20.4771L94.0209 20.5279L96.6868 19.152ZM94.6708 16.8L93.0067 19.2962L93.0392 19.3179L93.0723 19.3387L94.6708 16.8ZM88.6228 16.656L87.2445 13.9913L87.2252 14.0013L87.2061 14.0116L88.6228 16.656ZM86.4148 18.768L88.9637 20.3501L88.9637 20.3501L86.4148 18.768ZM86.4628 26.976L83.9803 28.6605L83.9947 28.6816L84.0093 28.7025L86.4628 26.976ZM88.7668 28.992L87.3885 31.6567L87.4252 31.6757L87.4625 31.6937L88.7668 28.992ZM94.0948 33.864C92.3379 33.864 90.9467 33.5052 89.8265 32.8903L86.939 38.1497C89.0828 39.3268 91.4996 39.864 94.0948 39.864V33.864ZM89.8486 32.9025C88.7821 32.3053 87.9111 31.4259 87.2337 30.1646L81.9478 33.0034C83.1264 35.1981 84.7834 36.9427 86.9169 38.1375L89.8486 32.9025ZM87.254 30.203C86.6178 28.9761 86.2053 27.3368 86.1498 25.1711L80.1517 25.3249C80.2242 28.1512 80.7717 30.7359 81.9275 32.965L87.254 30.203ZM83.1508 28.248H83.9188V22.248H83.1508V28.248ZM80.9188 25.248V36H86.9188V25.248H80.9188ZM83.9188 33H77.0068V39H83.9188V33ZM80.0068 36V0.959999H74.0068V36H80.0068ZM77.0068 3.96H85.7428V-2.04H77.0068V3.96ZM82.7428 0.959999V19.008H88.7428V0.959999H82.7428ZM83.6214 16.8867L81.7014 18.8067L85.9441 23.0493L87.8641 21.1293L83.6214 16.8867ZM86.8207 21.039C86.9053 18.7559 87.3369 16.9836 88.0034 15.6267L82.6181 12.9813C81.4926 15.2724 80.9322 17.9161 80.8248 20.817L86.8207 21.039ZM88.0034 15.6267C88.6727 14.2642 89.526 13.3547 90.5347 12.7577L87.4788 7.59427C85.3515 8.85329 83.7408 10.6958 82.6181 12.9813L88.0034 15.6267ZM90.5502 12.7485C91.632 12.0994 92.9264 11.736 94.5268 11.736V5.736C91.9671 5.736 89.5815 6.33255 87.4633 7.60352L90.5502 12.7485ZM94.5268 11.736C95.9366 11.736 97.1113 11.9983 98.1061 12.4625L100.643 7.02545C98.7582 6.14569 96.7009 5.736 94.5268 5.736V11.736ZM98.1563 12.4854C99.1683 12.9352 100.005 13.5745 100.698 14.4244L105.347 10.6316C104.057 9.04953 102.461 7.8328 100.593 7.00256L98.1563 12.4854ZM100.754 14.4905C101.497 15.3494 102.097 16.4041 102.529 17.7007L108.221 15.8033C107.565 13.8359 106.597 12.0746 105.292 10.5655L100.754 14.4905ZM102.529 17.7007C102.958 18.9887 103.191 20.4556 103.191 22.128H109.191C109.191 19.8964 108.879 17.7793 108.221 15.8033L102.529 17.7007ZM103.191 22.128V23.28H109.191V22.128H103.191ZM103.191 23.28C103.191 24.9514 102.958 26.4412 102.523 27.7718L108.226 29.6362C108.879 27.6388 109.191 25.5126 109.191 23.28H103.191ZM102.529 27.7553C102.099 29.0444 101.481 30.1446 100.685 31.0862L105.265 34.9618C106.58 33.4074 107.563 31.6276 108.221 29.6527L102.529 27.7553ZM100.71 31.0569C99.947 31.9351 99.0251 32.6191 97.9109 33.117L100.359 38.595C102.252 37.7489 103.89 36.5449 105.24 34.9911L100.71 31.0569ZM97.8889 33.1269C96.8679 33.593 95.624 33.864 94.0948 33.864V39.864C96.3415 39.864 98.4576 39.463 100.381 38.5851L97.8889 33.1269ZM91.5988 32.664C93.2757 32.664 94.8769 32.2361 96.2869 31.2962L92.9587 26.3038C92.6406 26.5159 92.2258 26.664 91.5988 26.664V32.664ZM96.3073 31.2824C97.6922 30.3426 98.7266 29.0662 99.4179 27.5454L93.9557 25.0626C93.6869 25.6538 93.3453 26.0414 92.9382 26.3176L96.3073 31.2824ZM99.3862 27.6128C100.123 26.0934 100.455 24.4354 100.455 22.704H94.4548C94.4548 23.6606 94.2746 24.4026 93.9873 24.9952L99.3862 27.6128ZM100.455 22.704C100.455 20.9588 100.129 19.2812 99.3526 17.7761L94.0209 20.5279C94.2681 21.0068 94.4548 21.6972 94.4548 22.704H100.455ZM99.4031 17.8787C98.7065 16.3925 97.6708 15.1438 96.2692 14.2613L93.0723 19.3387C93.3987 19.5442 93.707 19.8635 93.9704 20.4253L99.4031 17.8787ZM96.3349 14.3038C94.9113 13.3548 93.2894 12.936 91.5988 12.936V18.936C92.2761 18.936 92.7022 19.0932 93.0067 19.2962L96.3349 14.3038ZM91.5988 12.936C90.0685 12.936 88.6032 13.2885 87.2445 13.9913L90.001 19.3207C90.4983 19.0635 91.017 18.936 91.5988 18.936V12.936ZM87.2061 14.0116C85.8115 14.7587 84.6981 15.845 83.8658 17.1859L88.9637 20.3501C89.2834 19.835 89.642 19.5133 90.0394 19.3004L87.2061 14.0116ZM83.8658 17.1859C82.9405 18.6768 82.5508 20.3702 82.5508 22.128H88.5508C88.5508 21.2618 88.7371 20.7152 88.9637 20.3501L83.8658 17.1859ZM82.5508 22.128V23.76H88.5508V22.128H82.5508ZM82.5508 23.76C82.5508 25.5143 82.9857 27.1948 83.9803 28.6605L88.9452 25.2915C88.7238 24.9652 88.5508 24.5017 88.5508 23.76H82.5508ZM84.0093 28.7025C84.8918 29.9565 86.0269 30.9524 87.3885 31.6567L90.145 26.3273C89.6506 26.0716 89.2497 25.7235 88.9162 25.2495L84.0093 28.7025ZM87.4625 31.6937C88.7668 32.3233 90.1544 32.664 91.5988 32.664V26.664C91.1231 26.664 90.6227 26.5567 90.071 26.2903L87.4625 31.6937ZM116.511 35.808L115.293 38.5494L115.293 38.5494L116.511 35.808ZM112.143 32.688L114.37 30.6781L114.37 30.6781L112.143 32.688ZM109.407 28.272L106.596 29.3193L106.605 29.3434L106.614 29.3673L109.407 28.272ZM109.407 17.136L106.607 16.0591L106.601 16.0738L106.596 16.0887L109.407 17.136ZM112.095 12.72L109.893 10.6829L109.879 10.6979L109.865 10.7131L112.095 12.72ZM116.415 9.696L117.609 12.448L117.631 12.4386L117.653 12.4289L116.415 9.696ZM129.423 10.464L127.797 12.9849L127.797 12.9849L129.423 10.464ZM133.983 15.552L131.3 16.8936L131.304 16.9019L131.308 16.9101L133.983 15.552ZM135.567 25.152V28.152H138.567V25.152H135.567ZM112.143 25.152H109.143V28.152H112.143V25.152ZM112.143 20.448V17.448H109.143V20.448H112.143ZM130.527 20.448L132.245 22.9075L140.062 17.448H130.527V20.448ZM127.503 22.56H124.503V28.3145L129.221 25.0195L127.503 22.56ZM126.879 18.768L124.06 19.7932L124.079 19.8455L124.1 19.8971L126.879 18.768ZM125.103 16.368L123.369 18.8161L123.392 18.8327L123.416 18.8488L125.103 16.368ZM119.151 16.368L120.723 18.923L120.737 18.9149L120.75 18.9067L119.151 16.368ZM117.231 18.768L119.993 19.9396L119.999 19.925L120.005 19.9102L117.231 18.768ZM117.183 26.64L114.381 27.7114L114.386 27.7255L114.392 27.7396L117.183 26.64ZM119.103 29.088L120.767 26.5918L120.767 26.5918L119.103 29.088ZM125.439 29.328L124.055 26.6663L124.033 26.678L124.01 26.6901L125.439 29.328ZM127.119 27.648V24.648H125.187L124.388 26.4066L127.119 27.648ZM135.087 27.648L138.021 28.2766L138.798 24.648H135.087V27.648ZM132.783 32.448L130.461 30.5483L130.448 30.5643L130.435 30.5804L132.783 32.448ZM128.463 35.76L127.222 33.0289L127.212 33.0332L127.203 33.0376L128.463 35.76ZM122.463 33.96C120.566 33.96 119.01 33.6356 117.73 33.0666L115.293 38.5494C117.468 39.5164 119.88 39.96 122.463 39.96V33.96ZM117.73 33.0666C116.358 32.457 115.254 31.6569 114.37 30.6781L109.916 34.6979C111.401 36.3431 113.208 37.623 115.293 38.5494L117.73 33.0666ZM114.37 30.6781C113.426 29.6322 112.707 28.4695 112.2 27.1767L106.614 29.3673C107.387 31.3385 108.492 33.1198 109.916 34.6979L114.37 30.6781ZM112.218 27.2247C111.734 25.9251 111.495 24.5996 111.495 23.232H105.495C105.495 25.3204 105.864 27.3549 106.596 29.3193L112.218 27.2247ZM111.495 23.232V22.272H105.495V23.232H111.495ZM111.495 22.272C111.495 20.827 111.739 19.4705 112.218 18.1833L106.596 16.0887C105.859 18.0655 105.495 20.133 105.495 22.272H111.495ZM112.207 18.2129C112.72 16.8789 113.427 15.7247 114.325 14.7269L109.865 10.7131C108.459 12.2753 107.374 14.0651 106.607 16.0591L112.207 18.2129ZM114.297 14.7571C115.182 13.801 116.272 13.0284 117.609 12.448L115.221 6.94396C113.166 7.83555 111.376 9.07898 109.893 10.6829L114.297 14.7571ZM117.653 12.4289C118.905 11.8617 120.394 11.544 122.175 11.544V5.544C119.669 5.544 117.317 5.99431 115.178 6.96314L117.653 12.4289ZM122.175 11.544C124.566 11.544 126.389 12.077 127.797 12.9849L131.05 7.94311C128.489 6.29103 125.48 5.544 122.175 5.544V11.544ZM127.797 12.9849C129.329 13.9735 130.484 15.2622 131.3 16.8936L136.666 14.2104C135.37 11.6178 133.485 9.51447 131.05 7.94311L127.797 12.9849ZM131.308 16.9101C132.138 18.5456 132.567 20.3486 132.567 22.368H138.567C138.567 19.4594 137.94 16.7184 136.658 14.1939L131.308 16.9101ZM132.567 22.368V25.152H138.567V22.368H132.567ZM135.567 22.152H112.143V28.152H135.567V22.152ZM115.143 25.152V20.448H109.143V25.152H115.143ZM112.143 23.448H130.527V17.448H112.143V23.448ZM128.809 17.9885L125.785 20.1005L129.221 25.0195L132.245 22.9075L128.809 17.9885ZM130.503 22.56C130.503 20.7998 130.262 19.1256 129.659 17.6389L124.1 19.8971C124.328 20.4584 124.503 21.3122 124.503 22.56H130.503ZM129.699 17.7428C129.135 16.1936 128.192 14.8404 126.79 13.8872L123.416 18.8488C123.615 18.9836 123.855 19.2304 124.06 19.7932L129.699 17.7428ZM126.837 13.9199C125.445 12.9337 123.819 12.552 122.175 12.552V18.552C122.899 18.552 123.225 18.7143 123.369 18.8161L126.837 13.9199ZM122.175 12.552C120.532 12.552 118.955 12.9465 117.553 13.8293L120.75 18.9067C121.075 18.7015 121.514 18.552 122.175 18.552V12.552ZM117.579 13.813C116.104 14.7205 115.096 16.0743 114.457 17.6257L120.005 19.9102C120.262 19.2857 120.534 19.0395 120.723 18.923L117.579 13.813ZM114.469 17.5963C113.813 19.1446 113.559 20.9228 113.559 22.8H119.559C119.559 21.4132 119.754 20.5034 119.993 19.9396L114.469 17.5963ZM113.559 22.8C113.559 24.5456 113.805 26.2044 114.381 27.7114L119.985 25.5686C119.729 24.8996 119.559 23.9984 119.559 22.8H113.559ZM114.392 27.7396C115.01 29.3097 116.018 30.6369 117.439 31.5842L120.767 26.5918C120.46 26.3871 120.188 26.0823 119.974 25.5404L114.392 27.7396ZM117.439 31.5841C118.933 32.5799 120.684 32.952 122.463 32.952V26.952C121.49 26.952 121.002 26.7481 120.767 26.5918L117.439 31.5841ZM122.463 32.952C123.993 32.952 125.523 32.6944 126.868 31.9659L124.01 26.6901C123.819 26.7936 123.365 26.952 122.463 26.952V32.952ZM126.823 31.9897C128.115 31.3178 129.208 30.3021 129.85 28.8894L124.388 26.4066C124.381 26.4232 124.37 26.4428 124.338 26.4747C124.302 26.5103 124.22 26.5805 124.055 26.6663L126.823 31.9897ZM127.119 30.648H135.087V24.648H127.119V30.648ZM132.154 27.0194C131.869 28.3487 131.309 29.5122 130.461 30.5483L135.105 34.3477C136.561 32.5678 137.537 30.5313 138.021 28.2766L132.154 27.0194ZM130.435 30.5804C129.632 31.5898 128.583 32.4102 127.222 33.0289L129.705 38.4911C131.863 37.5098 133.694 36.1222 135.131 34.3156L130.435 30.5804ZM127.203 33.0376C125.939 33.6228 124.383 33.96 122.463 33.96V39.96C125.087 39.96 127.532 39.4972 129.724 38.4824L127.203 33.0376ZM139.596 36H136.596V39H139.596V36ZM139.596 0.959999V-2.04H136.596V0.959999H139.596ZM148.332 0.959999H151.332V-2.04H148.332V0.959999ZM148.332 36V39H151.332V36H148.332ZM136.62 7.296H133.62V10.296H136.62V7.296ZM136.62 0.959999V-2.04H133.62V0.959999H136.62ZM148.332 0.959999H151.332V-2.04H148.332V0.959999ZM148.332 7.296V10.296H151.332V7.296H148.332ZM142.596 36V0.959999H136.596V36H142.596ZM139.596 3.96H148.332V-2.04H139.596V3.96ZM145.332 0.959999V36H151.332V0.959999H145.332ZM148.332 33H139.596V39H148.332V33ZM139.62 7.296V0.959999H133.62V7.296H139.62ZM136.62 3.96H148.332V-2.04H136.62V3.96ZM145.332 0.959999V7.296H151.332V0.959999H145.332ZM148.332 4.296H136.62V10.296H148.332V4.296ZM169.846 36H166.846V39H169.846V36ZM169.846 28.224H172.846V25.224H169.846V28.224ZM168.406 28.224H165.406V31.224H168.406V28.224ZM167.542 17.232L165.307 19.2324L165.362 19.2944L165.421 19.3533L167.542 17.232ZM162.118 16.368L162.199 19.3669L162.199 19.3669L162.118 16.368ZM158.374 16.512L158.52 19.5084L158.374 16.512ZM154.774 16.704H151.774V19.8857L154.95 19.6988L154.774 16.704ZM154.774 9.408L154.525 6.41836L151.774 6.6476V9.408H154.774ZM157.51 9.216L157.329 6.22149L157.51 9.216ZM160.774 9.072L160.691 6.07315L160.689 6.07322L160.774 9.072ZM170.854 10.224L169.684 12.9863L169.692 12.9898L169.7 12.9932L170.854 10.224ZM175.222 13.824L172.673 15.4048L172.684 15.4231L172.695 15.4412L175.222 13.824ZM176.758 36V39H179.758V36H176.758ZM153.094 32.784L150.55 34.374L150.574 34.4114L150.598 34.4481L153.094 32.784ZM153.478 23.424L155.743 25.3911L155.756 25.3765L155.768 25.3618L153.478 23.424ZM157.846 20.688L158.735 23.5532L158.735 23.5532L157.846 20.688ZM169.366 19.824H172.366V16.824H169.366V19.824ZM169.366 24.336V27.336H172.366V24.336H169.366ZM161.494 25.248L163.501 27.4779L163.531 27.4508L163.561 27.423L161.494 25.248ZM161.494 29.952L159.428 32.127L159.457 32.1548L159.487 32.1819L161.494 29.952ZM166.246 30.432L167.465 33.1734L167.498 33.1587L167.531 33.1432L166.246 30.432ZM167.734 28.992L165.13 27.5036L165.13 27.5036L167.734 28.992ZM168.406 26.208L170.475 24.0356L165.762 19.5467L165.411 26.0461L168.406 26.208ZM170.422 28.128L173.411 28.3902L173.537 26.9515L172.491 25.9556L170.422 28.128ZM169.078 32.784L166.478 31.2886L166.471 31.2993L166.465 31.31L169.078 32.784ZM166.102 35.664L164.708 33.0078L164.694 33.0151L164.68 33.0226L166.102 35.664ZM172.846 36V28.224H166.846V36H172.846ZM169.846 25.224H168.406V31.224H169.846V25.224ZM171.406 28.224V19.92H165.406V28.224H171.406ZM171.406 19.92C171.406 18.2966 171.027 16.4745 169.664 15.1107L165.421 19.3533C165.323 19.2554 165.313 19.1891 165.334 19.254C165.36 19.3333 165.406 19.5376 165.406 19.92H171.406ZM169.778 15.2316C168.409 13.7013 166.46 13.32 164.806 13.32V19.32C165.224 19.32 165.434 19.3715 165.502 19.394C165.551 19.4106 165.44 19.3818 165.307 19.2324L169.778 15.2316ZM164.806 13.32C164.157 13.32 163.228 13.3369 162.037 13.3691L162.199 19.3669C163.376 19.3351 164.24 19.32 164.806 19.32V13.32ZM162.037 13.3691C160.829 13.4017 159.559 13.4506 158.228 13.5156L158.52 19.5084C159.813 19.4454 161.039 19.3983 162.199 19.3669L162.037 13.3691ZM158.228 13.5156C156.908 13.58 155.698 13.6445 154.598 13.7092L154.95 19.6988C156.027 19.6355 157.216 19.572 158.52 19.5084L158.228 13.5156ZM157.774 16.704V9.408H151.774V16.704H157.774ZM155.023 12.3976C155.762 12.3361 156.651 12.2736 157.692 12.2105L157.329 6.22149C156.258 6.2864 155.322 6.35194 154.525 6.41836L155.023 12.3976ZM157.692 12.2105C158.714 12.1485 159.77 12.1019 160.86 12.0708L160.689 6.07322C159.538 6.10608 158.418 6.15545 157.329 6.22149L157.692 12.2105ZM160.858 12.0708C161.987 12.0395 163.015 12.024 163.942 12.024V6.024C162.95 6.024 161.865 6.04053 160.691 6.07315L160.858 12.0708ZM163.942 12.024C166.385 12.024 168.266 12.3853 169.684 12.9863L172.025 7.46175C169.667 6.46266 166.94 6.024 163.942 6.024V12.024ZM169.7 12.9932C171.106 13.5789 172.045 14.3926 172.673 15.4048L177.772 12.2432C176.416 10.0554 174.442 8.46908 172.008 7.45477L169.7 12.9932ZM172.695 15.4412C173.331 16.4342 173.758 17.8614 173.758 19.92H179.758C179.758 17.0506 179.162 14.4138 177.749 12.2068L172.695 15.4412ZM173.758 19.92V36H179.758V19.92H173.758ZM176.758 33H169.846V39H176.758V33ZM161.446 33.672C159.955 33.672 158.752 33.4034 157.771 32.9455L155.234 38.3825C157.132 39.2686 159.225 39.672 161.446 39.672V33.672ZM157.771 32.9455C156.798 32.4915 156.099 31.8831 155.59 31.1199L150.598 34.4481C151.753 36.1809 153.326 37.4925 155.234 38.3825L157.771 32.9455ZM155.638 31.194C155.183 30.4654 154.894 29.5167 154.894 28.224H148.894C148.894 30.4513 149.406 32.5426 150.55 34.374L155.638 31.194ZM154.894 28.224C154.894 26.7886 155.264 25.9428 155.743 25.3911L151.213 21.4569C149.58 23.3372 148.894 25.6914 148.894 28.224H154.894ZM155.768 25.3618C156.391 24.6266 157.321 23.9922 158.735 23.5532L156.957 17.8228C154.66 18.5358 152.678 19.7254 151.188 21.4862L155.768 25.3618ZM158.735 23.5532C160.245 23.0847 162.064 22.824 164.23 22.824V16.824C161.597 16.824 159.159 17.1393 156.957 17.8228L158.735 23.5532ZM164.23 22.824H169.366V16.824H164.23V22.824ZM166.366 19.824V24.336H172.366V19.824H166.366ZM169.366 21.336H164.23V27.336H169.366V21.336ZM164.23 21.336C162.546 21.336 160.794 21.7755 159.428 23.073L163.561 27.423C163.534 27.4481 163.53 27.4355 163.607 27.41C163.696 27.3805 163.889 27.336 164.23 27.336V21.336ZM159.487 23.0181C158.116 24.2519 157.534 25.9002 157.534 27.6H163.534C163.534 27.4271 163.562 27.3776 163.552 27.4017C163.547 27.4125 163.539 27.4301 163.525 27.449C163.519 27.4579 163.513 27.465 163.508 27.4704C163.504 27.4757 163.501 27.4781 163.501 27.4779L159.487 23.0181ZM157.534 27.6C157.534 29.3024 158.136 30.8998 159.428 32.127L163.561 27.777C163.544 27.7616 163.541 27.7557 163.544 27.7598C163.547 27.7643 163.55 27.7702 163.552 27.7743C163.557 27.7872 163.534 27.7429 163.534 27.6H157.534ZM159.487 32.1819C160.856 33.4134 162.585 33.816 164.23 33.816V27.816C163.508 27.816 163.413 27.6426 163.501 27.7221L159.487 32.1819ZM164.23 33.816C165.328 33.816 166.431 33.6329 167.465 33.1734L165.028 27.6906C164.91 27.7431 164.668 27.816 164.23 27.816V33.816ZM167.531 33.1432C168.774 32.5543 169.698 31.6027 170.339 30.4804L165.13 27.5036C165.061 27.6231 165.01 27.6793 164.988 27.7002C164.969 27.7185 164.962 27.7206 164.962 27.7208L167.531 33.1432ZM170.339 30.4804C171.046 29.244 171.325 27.7951 171.402 26.3699L165.411 26.0461C165.36 26.9889 165.191 27.396 165.13 27.5036L170.339 30.4804ZM166.337 28.3804L168.353 30.3004L172.491 25.9556L170.475 24.0356L166.337 28.3804ZM167.434 27.8658C167.303 29.3571 166.95 30.4661 166.478 31.2886L171.679 34.2794C172.678 32.5419 173.222 30.5469 173.411 28.3902L167.434 27.8658ZM166.465 31.31C166.048 32.0501 165.481 32.6018 164.708 33.0078L167.497 38.3202C169.283 37.3822 170.701 36.0139 171.691 34.258L166.465 31.31ZM164.68 33.0226C163.983 33.3976 162.954 33.672 161.446 33.672V39.672C163.65 39.672 165.725 39.2744 167.525 38.3054L164.68 33.0226Z" fill="black" mask="url(#path-1-outside-1_43_2657)"/>
</svg>
